<svg width="48" height="48" viewBox="0 0 48 48" fill="none" xmlns="http://www.w3.org/2000/svg">
<g clip-path="url(#clip0_2102_777)">
<path d="M23.5122 0.760986C10.5944 0.760986 0.111816 11.1118 0.111816 23.865C0.111816 36.6183 10.5953 46.9691 23.5122 46.9691C36.429 46.9691 46.9125 36.6183 46.9125 23.865C46.9125 23.5682 46.6688 23.3276 46.3682 23.3276H43.7664C43.6207 23.3257 43.4802 23.3816 43.3766 23.4824C43.273 23.5832 43.2145 23.7211 43.2145 23.865C43.2145 24.009 43.273 24.1469 43.3766 24.2477C43.4802 24.3485 43.6207 24.4044 43.7664 24.4025H45.773C45.6321 30.0693 43.3416 35.2138 39.6679 39.044L38.1882 37.5999C38.0637 37.465 37.8777 37.4017 37.6951 37.432C37.492 37.4684 37.3272 37.6153 37.2695 37.8109C37.2122 38.0066 37.2714 38.2176 37.4229 38.3555L38.9026 39.8165C35.0307 43.4774 29.8165 45.7593 24.0568 45.8949V43.8126C24.0579 43.6578 23.9911 43.5098 23.8738 43.4071C23.7565 43.304 23.6001 43.256 23.4445 43.2755C23.1708 43.3096 22.9662 43.5405 22.9681 43.8126V45.8949C17.2024 45.7593 11.988 43.4629 8.1048 39.7997L9.60153 38.3556C9.77235 38.1959 9.82018 37.946 9.71958 37.7357C9.6186 37.5254 9.39274 37.4033 9.15929 37.4321C9.03744 37.4452 8.92356 37.4984 8.83625 37.5835L7.32242 39.0272C3.64639 35.1994 1.35397 30.0656 1.21734 24.403H3.29227C3.43804 24.4049 3.57811 24.349 3.68212 24.2482C3.78575 24.1474 3.84421 24.0094 3.84421 23.8655C3.84421 23.7216 3.78575 23.5837 3.68212 23.4829C3.57811 23.382 3.43804 23.3262 3.29227 23.3281H1.21734C1.35627 17.6511 3.66271 12.5168 7.35663 8.68655L8.83635 10.1306C8.93998 10.2307 9.07967 10.2862 9.22506 10.2847C9.37007 10.2832 9.50863 10.2247 9.60997 10.122C9.71171 10.0197 9.76789 9.88179 9.76599 9.73825C9.76447 9.59507 9.70525 9.45827 9.60162 9.35821L8.139 7.91411C12.0185 4.26965 17.2194 1.98784 22.9683 1.85256V3.90122C22.9664 4.04514 23.023 4.18344 23.1251 4.28613C23.2272 4.38845 23.3669 4.44617 23.5127 4.44617C23.6584 4.44617 23.7981 4.38845 23.9002 4.28613C24.0023 4.18344 24.0589 4.04514 24.057 3.90122V1.85256C32.7719 2.07856 40.721 7.65889 44.2262 15.0165L37.322 13.4719C37.1751 13.4206 37.0134 13.4337 36.8775 13.5079C36.7412 13.5821 36.6437 13.7103 36.6095 13.8602C36.5754 14.0098 36.6076 14.1668 36.698 14.2916C36.7887 14.4164 36.9291 14.497 37.0837 14.5127L45.2298 16.3263C45.5206 16.3889 45.8084 16.2094 45.8759 15.9234L47.7295 7.86388C47.7644 7.71321 47.7321 7.55543 47.641 7.43025C47.5499 7.30507 47.4087 7.22412 47.2535 7.20875C46.9752 7.17689 46.7175 7.35829 46.6583 7.62851L45.1277 14.3617C41.3188 6.56859 32.8241 0.761197 23.5125 0.761197L23.5122 0.760986ZM23.4442 9.84487C23.1637 9.87973 22.9568 10.1203 22.9678 10.3988V20.7246C21.4502 20.984 20.2811 22.295 20.2811 23.8647C20.2811 25.6191 21.7353 27.0549 23.5122 27.0549C24.2035 27.0549 24.8389 26.8192 25.3658 26.4504L30.8077 31.8234C30.9049 31.9422 31.048 32.0146 31.2025 32.0228C31.3566 32.0311 31.5073 31.9741 31.6163 31.8662C31.7256 31.7586 31.7833 31.6098 31.7749 31.4576C31.7666 31.3051 31.6933 31.1638 31.573 31.0678L26.1482 25.6948C26.5217 25.1746 26.7434 24.5472 26.7434 23.8647C26.7434 22.2951 25.5742 20.9841 24.0566 20.7247V10.3988C24.0627 10.241 23.9982 10.0885 23.8805 9.98168C23.7624 9.87524 23.6029 9.82501 23.4442 9.84487ZM23.5122 21.749C24.7007 21.749 25.655 22.6913 25.655 23.8648C25.655 25.0386 24.7007 25.9805 23.5122 25.9805C22.3236 25.9805 21.3693 25.0386 21.3693 23.8648C21.3693 22.6913 22.3236 21.749 23.5122 21.749Z" fill="#A4834E"/>
</g>
<defs>
<clipPath id="clip0_2102_777">
<rect width="48" height="48" fill="white"/>
</clipPath>
</defs>
</svg>
