<svg width="57" height="192" viewBox="0 0 57 192" fill="none" xmlns="http://www.w3.org/2000/svg">
<path d="M9.625 156.375L7.6875 154.25C9.10417 153 10.4792 151.667 11.8125 150.25C13.1042 148.833 14.3125 147.396 15.4375 145.938C16.5208 144.521 17.5 143.104 18.375 141.688C19.25 140.271 19.9792 138.917 20.5625 137.625C21.3958 135.75 21.8125 133.729 21.8125 131.562C21.8125 129.521 20.0625 128.5 16.5625 128.5C14.6875 128.5 13.0625 128 11.6875 127C10.3125 126.042 9.625 124.458 9.625 122.25C9.625 121.125 9.8125 120.104 10.1875 119.188C10.5625 118.271 11.0833 117.479 11.75 116.812C12.4167 116.188 13.1875 115.688 14.0625 115.312C14.8958 114.938 15.8125 114.75 16.8125 114.75C20.3125 114.75 22.8333 115.833 24.375 118C26 120.208 26.8125 122.854 26.8125 125.938C26.8125 130.396 25.2917 135.333 22.25 140.75C20.7083 143.5 18.9167 146.167 16.875 148.75C14.7917 151.333 12.375 153.875 9.625 156.375ZM32.875 156.375L30.9375 154.25C32.3542 153 33.7292 151.667 35.0625 150.25C36.3542 148.833 37.5625 147.396 38.6875 145.938C39.7708 144.521 40.75 143.104 41.625 141.688C42.5 140.271 43.2292 138.917 43.8125 137.625C44.6458 135.75 45.0625 133.729 45.0625 131.562C45.0625 129.521 43.3125 128.5 39.8125 128.5C37.9375 128.5 36.3125 128 34.9375 127C33.5625 126.042 32.875 124.458 32.875 122.25C32.875 121.125 33.0625 120.104 33.4375 119.188C33.8125 118.271 34.3333 117.479 35 116.812C35.6667 116.188 36.4375 115.688 37.3125 115.312C38.1458 114.938 39.0625 114.75 40.0625 114.75C43.5625 114.75 46.0833 115.833 47.625 118C49.25 120.208 50.0625 122.854 50.0625 125.938C50.0625 130.396 48.5417 135.333 45.5 140.75C43.9583 143.5 42.1667 146.167 40.125 148.75C38.0417 151.333 35.625 153.875 32.875 156.375Z" fill="#D9D9D9"/>
</svg>
