<svg width="57" height="192" viewBox="0 0 57 192" fill="none" xmlns="http://www.w3.org/2000/svg">
<path d="M47.375 35.625L49.3125 37.75C47.8958 39 46.5208 40.3333 45.1875 41.75C43.8958 43.1667 42.6875 44.6042 41.5625 46.0625C40.4792 47.4792 39.5 48.8958 38.625 50.3125C37.75 51.7292 37.0208 53.0833 36.4375 54.375C35.6042 56.25 35.1875 58.2708 35.1875 60.4375C35.1875 62.4792 36.9375 63.5 40.4375 63.5C42.3125 63.5 43.9375 64 45.3125 65C46.6875 65.9583 47.375 67.5417 47.375 69.75C47.375 70.875 47.1875 71.8958 46.8125 72.8125C46.4375 73.7292 45.9167 74.5208 45.25 75.1875C44.5833 75.8125 43.8125 76.3125 42.9375 76.6875C42.1042 77.0625 41.1875 77.25 40.1875 77.25C36.6875 77.25 34.1667 76.1667 32.625 74C31 71.7917 30.1875 69.1458 30.1875 66.0625C30.1875 61.6042 31.7083 56.6667 34.75 51.25C36.2917 48.5 38.0833 45.8333 40.125 43.25C42.2083 40.6667 44.625 38.125 47.375 35.625ZM24.125 35.625L26.0625 37.75C24.6458 39 23.2708 40.3333 21.9375 41.75C20.6458 43.1667 19.4375 44.6042 18.3125 46.0625C17.2292 47.4792 16.25 48.8958 15.375 50.3125C14.5 51.7292 13.7708 53.0833 13.1875 54.375C12.3542 56.25 11.9375 58.2708 11.9375 60.4375C11.9375 62.4792 13.6875 63.5 17.1875 63.5C19.0625 63.5 20.6875 64 22.0625 65C23.4375 65.9583 24.125 67.5417 24.125 69.75C24.125 70.875 23.9375 71.8958 23.5625 72.8125C23.1875 73.7292 22.6667 74.5208 22 75.1875C21.3333 75.8125 20.5625 76.3125 19.6875 76.6875C18.8542 77.0625 17.9375 77.25 16.9375 77.25C13.4375 77.25 10.9167 76.1667 9.375 74C7.75 71.7917 6.9375 69.1458 6.9375 66.0625C6.9375 61.6042 8.45833 56.6667 11.5 51.25C13.0417 48.5 14.8333 45.8333 16.875 43.25C18.9583 40.6667 21.375 38.125 24.125 35.625Z" fill="#D9D9D9"/>
</svg>
