<svg width="201" height="50" viewBox="0 0 201 50" fill="none" xmlns="http://www.w3.org/2000/svg">
<g clip-path="url(#clip0_142_2533)">
<path d="M42.9001 8.5C40.1628 8.5 37.487 9.31171 35.211 10.8325C32.935 12.3532 31.1611 14.5147 30.1136 17.0437C29.0661 19.5726 28.792 22.3554 29.326 25.0401C29.86 27.7248 31.1782 30.1908 33.1137 32.1264C35.0493 34.0619 37.5153 35.3801 40.2 35.9141C42.8847 36.4481 45.6675 36.174 48.1964 35.1265C50.7254 34.079 52.8869 32.3051 54.4076 30.0291C55.9284 27.7531 56.7401 25.0773 56.7401 22.34C56.7414 20.5221 56.3843 18.7219 55.6893 17.0421C54.9942 15.3624 53.9748 13.8361 52.6894 12.5507C51.404 11.2653 49.8777 10.2459 48.198 9.55083C46.5182 8.85577 44.718 8.49869 42.9001 8.5ZM40.9001 28.21L39.9001 31.21C38.0291 30.5579 36.4082 29.3383 35.2633 27.7212C34.1184 26.104 33.5067 24.17 33.5133 22.1886C33.5199 20.2073 34.1445 18.2773 35.3002 16.6679C36.4558 15.0584 38.0848 13.8496 39.9601 13.21L40.9601 16.21C39.7224 16.6278 38.6486 17.4264 37.8924 18.4915C37.1362 19.5567 36.7363 20.8338 36.7501 22.14C36.6717 23.4713 37.0391 24.7908 37.7943 25.89C38.5494 26.9892 39.6493 27.8056 40.9201 28.21H40.9001ZM45.6201 31.34L44.6201 28.28C45.8779 27.8729 46.9752 27.0793 47.7556 26.0121C48.5359 24.945 48.9596 23.6587 48.9663 22.3367C48.9729 21.0147 48.5622 19.7243 47.7926 18.6493C47.023 17.5744 45.9337 16.7697 44.6801 16.35L45.6801 13.29C47.5814 13.9232 49.2334 15.1419 50.3995 16.7716C51.5656 18.4013 52.1859 20.3583 52.1714 22.3622C52.157 24.3661 51.5086 26.314 50.3192 27.9267C49.1297 29.5395 47.4603 30.7343 45.5501 31.34H45.6201Z" fill="#00BEF0"/>
<path d="M66.5701 45.44H64.4001V39.06H68.1601V39.7H65.1601V41.7H66.5601C67.8401 41.7 68.6701 42.21 68.6701 43.49V43.55C68.6701 44.8 67.8401 45.44 66.5701 45.44ZM66.5701 44.87C67.5701 44.87 67.9101 44.42 67.9101 43.66V43.6C67.9101 42.83 67.4601 42.39 66.5101 42.39H65.1601V44.88L66.5701 44.87ZM69.3801 44.17C69.3801 43.09 70.5301 42.7 71.7401 42.7H72.4401V42.38C72.4401 41.61 72.1801 41.3 71.4401 41.3C70.7001 41.3 70.4401 41.56 70.3601 42.13H69.5901C69.6123 41.9109 69.6782 41.6985 69.7838 41.5053C69.8895 41.3121 70.0327 41.1419 70.2051 41.0049C70.3775 40.8679 70.5756 40.7668 70.7877 40.7076C70.9998 40.6484 71.2216 40.6322 71.4401 40.66C71.6681 40.6285 71.9003 40.6492 72.1192 40.7206C72.338 40.792 72.5378 40.9121 72.7035 41.072C72.8691 41.2319 72.9963 41.4273 73.0754 41.6435C73.1545 41.8597 73.1834 42.091 73.1601 42.32V45.38H72.3301V44.8C72.1665 45.0338 71.9451 45.2212 71.6874 45.3439C71.4298 45.4666 71.1447 45.5204 70.8601 45.5C70.0801 45.5 69.3301 45.12 69.3301 44.16L69.3801 44.17ZM72.4401 43.85V43.28H71.8001C70.8001 43.28 70.2101 43.54 70.2101 44.17C70.2101 44.8 70.4701 44.94 71.1001 44.94C71.7301 44.94 72.4401 44.54 72.4401 43.84V43.85ZM77.4401 43.4H75.1401V45.5H74.3301V40.84H75.1001V42.84H77.4001V40.84H78.1701V45.5H77.4001L77.4401 43.4ZM80.2501 43.08V45.44H79.4801V40.78H80.2501V42.95L82.1601 40.78H83.0501L81.0501 42.95L83.2201 45.44H82.3301L80.2501 43.08ZM169.59 24.83L171.12 26.68C170.449 27.3676 169.644 27.9098 168.755 28.2728C167.865 28.6358 166.91 28.8119 165.95 28.79C164.722 28.8311 163.501 28.5917 162.38 28.09C161.389 27.5564 160.574 26.7475 160.033 25.761C159.492 24.7744 159.248 23.6522 159.33 22.53C159.33 18.77 161.88 15.96 165.65 15.96C169.86 15.96 171.9 19.09 171.58 23.17H162.01C162.042 23.6713 162.192 24.1579 162.448 24.5905C162.703 25.0231 163.057 25.3895 163.48 25.66C164.272 26.1258 165.183 26.3484 166.1 26.3C166.751 26.3062 167.397 26.179 167.997 25.9262C168.597 25.6734 169.139 25.3003 169.59 24.83ZM162.13 20.94H168.89C168.781 20.1502 168.379 19.4303 167.764 18.9228C167.149 18.4154 166.366 18.1574 165.57 18.2C164.764 18.1712 163.974 18.4315 163.343 18.934C162.713 19.4365 162.282 20.148 162.13 20.94ZM97.8301 28.47H101.27L95.8501 22.15L101.21 16.22H97.8301L93.7501 20.94H92.5301V16.22H89.9201V28.4H92.5301V23.56H93.7401L97.8301 28.47ZM109.12 18.47C108.616 18.465 108.117 18.5636 107.654 18.7598C107.19 18.956 106.771 19.2456 106.424 19.6105C106.077 19.9754 105.809 20.4078 105.636 20.8808C105.463 21.3538 105.39 21.8573 105.42 22.36C105.39 22.8627 105.463 23.3662 105.636 23.8392C105.809 24.3122 106.077 24.7446 106.424 25.1095C106.771 25.4744 107.19 25.7639 107.654 25.9601C108.117 26.1564 108.616 26.255 109.12 26.25C109.622 26.2587 110.12 26.1621 110.583 25.9663C111.045 25.7706 111.461 25.48 111.804 25.1134C112.147 24.7468 112.409 24.3124 112.574 23.8381C112.739 23.3638 112.802 22.8603 112.76 22.36C112.805 21.8581 112.744 21.3524 112.581 20.8757C112.417 20.399 112.155 19.9621 111.812 19.5932C111.469 19.2244 111.052 18.932 110.588 18.7351C110.124 18.5381 109.624 18.441 109.12 18.45V18.47ZM109.57 15.98C113.01 15.98 115.57 18.66 115.57 22.36C115.57 26.06 113.08 28.8 109.57 28.8C108.829 28.8339 108.089 28.7097 107.399 28.4356C106.709 28.1614 106.086 27.7436 105.57 27.21V33.59H102.93V16.22H105.55V17.69C106.04 17.1148 106.658 16.6624 107.354 16.3689C108.051 16.0754 108.806 15.9491 109.56 16L109.57 15.98ZM144.27 16.24H133.33V18.66H137.48V28.4H140.16V18.7H144.33V16.22L144.27 16.24ZM88.0701 16.24H77.1601V18.66H81.3301V28.4H84.0101V18.7H88.1301V16.22L88.0701 16.24ZM73.9001 22.34C73.9001 21.3242 73.4965 20.35 72.7783 19.6318C72.06 18.9135 71.0858 18.51 70.0701 18.51C69.0543 18.51 68.0801 18.9135 67.3618 19.6318C66.6436 20.35 66.2401 21.3242 66.2401 22.34C66.2401 23.3558 66.6436 24.3299 67.3618 25.0482C68.0801 25.7665 69.0543 26.17 70.0701 26.17C71.0858 26.17 72.06 25.7665 72.7783 25.0482C73.4965 24.3299 73.9001 23.3558 73.9001 22.34ZM63.5701 22.34C63.5442 21.0353 63.9075 19.7525 64.6135 18.6552C65.3196 17.5578 66.3364 16.6955 67.5344 16.1782C68.7324 15.6609 70.0573 15.5121 71.3402 15.7508C72.6231 15.9894 73.8059 16.6047 74.7378 17.5181C75.6697 18.4316 76.3085 19.6018 76.5727 20.8797C76.8369 22.1576 76.7146 23.4852 76.2214 24.6933C75.7282 25.9014 74.8864 26.9352 73.8033 27.6631C72.7202 28.3909 71.445 28.7797 70.1401 28.78C69.2791 28.8142 68.4202 28.6721 67.6162 28.3623C66.8123 28.0524 66.0801 27.5815 65.4648 26.9783C64.8495 26.3752 64.364 25.6526 64.0381 24.8549C63.7123 24.0573 63.553 23.2014 63.5701 22.34ZM157.22 16.22V28.4H154.6V20.56L148.22 28.41H146.11V16.22H148.73V24.13L155.11 16.28H157.22V16.22ZM131.57 28.47H128.95V16.22H131.57V28.47ZM124.74 24.26C124.752 24.0189 124.715 23.7778 124.63 23.5517C124.546 23.3256 124.415 23.1194 124.247 22.9459C124.079 22.7723 123.878 22.6352 123.654 22.543C123.431 22.4508 123.191 22.4056 122.95 22.41H120.33V26.17H123.01C123.252 26.1652 123.49 26.1112 123.71 26.0113C123.93 25.9115 124.128 25.7678 124.291 25.5891C124.453 25.4103 124.578 25.2003 124.657 24.9718C124.736 24.7433 124.768 24.5011 124.75 24.26H124.74ZM127.42 24.26C127.432 24.8247 127.327 25.3857 127.111 25.9075C126.895 26.4292 126.572 26.9003 126.164 27.2906C125.756 27.681 125.271 27.9821 124.74 28.1748C124.209 28.3675 123.644 28.4476 123.08 28.41H117.66V16.22H120.33V20.22H123.33C123.872 20.1872 124.415 20.2687 124.923 20.4593C125.431 20.6499 125.894 20.9453 126.28 21.3263C126.667 21.7073 126.969 22.1654 127.167 22.6708C127.365 23.1763 127.455 23.7177 127.43 24.26H127.42Z" fill="black"/>
</g>
<defs>
<clipPath id="clip0_142_2533">
<rect width="200" height="50" fill="white" transform="translate(0.330078)"/>
</clipPath>
</defs>
</svg>
