<svg width="201" height="50" viewBox="0 0 201 50" fill="none" xmlns="http://www.w3.org/2000/svg">
<g clip-path="url(#clip0_142_2470)">
<g clip-path="url(#clip1_142_2470)">
<path d="M90.7084 18.5803L94.5023 15.7841H81.8008V32.5334H94.5023V29.7373H85.4298V25.4609H93.1827V22.6648H85.4298V18.5803H90.7084Z" fill="#21A038"/>
<path d="M72.2053 22.3084H67.8065V18.5803H74.8446L78.6386 15.7841H64.1775V32.5334H71.738C75.9718 32.5334 78.4186 30.6145 78.4186 27.2702C78.4186 24.0628 76.2192 22.3084 72.2053 22.3084ZM71.6005 29.7373H67.8065V25.1045H71.6005C73.9099 25.1045 74.9821 25.8721 74.9821 27.4346C74.9821 28.9972 73.8274 29.7373 71.6005 29.7373Z" fill="#21A038"/>
<path d="M104.784 15.7841H97.8833V32.5334H101.512V27.791H104.811C109.21 27.791 111.959 25.4883 111.959 21.7876C111.959 18.0868 109.21 15.7841 104.784 15.7841ZM104.701 24.9949H101.485V18.5803H104.701C107.038 18.5803 108.303 19.7316 108.303 21.7876C108.303 23.8435 107.038 24.9949 104.701 24.9949Z" fill="#21A038"/>
<path d="M57.9643 28.9149C57.0021 29.4358 55.9299 29.7099 54.8302 29.7099C51.5586 29.7099 49.1942 27.3798 49.1942 24.1725C49.1942 20.9652 51.5586 18.6351 54.8302 18.6351C56.0124 18.6077 57.1671 18.9915 58.1293 19.6768L60.7411 17.7579L60.5761 17.5934C59.064 16.2502 57.0296 15.5648 54.7202 15.5648C52.2184 15.5648 49.9365 16.4147 48.287 17.9498C46.6374 19.5397 45.7027 21.7602 45.7577 24.0629C45.7302 26.393 46.6374 28.6408 48.287 30.2856C50.019 31.9029 52.3284 32.8076 54.6927 32.7527C57.3045 32.7527 59.5864 31.8481 61.126 30.2033L58.7891 28.4763L57.9643 28.9149Z" fill="#21A038"/>
<path d="M155.59 15.8116V32.5608H159.219V25.7076H166.945V32.5608H170.574V15.8116H166.945V22.6922H159.219V15.8116H155.59ZM149.35 32.5608H153.171L146.078 15.8116H142.394L135.163 32.5608H138.82L140.277 29.1891H147.975L149.35 32.5608ZM141.377 26.3929L144.181 19.6768L146.82 26.3929H141.377ZM178.711 25.7899H180.966L186.519 32.5334H191.193L183.77 23.871L190.258 15.7841H186.107L180.718 22.9663H178.711V15.7841H175.082V32.5334H178.711V25.7899ZM123.177 22.3358V18.6077H132.662V15.8116H119.548V32.5608H127.108C131.342 32.5608 133.789 30.6419 133.789 27.2976C133.789 24.0903 131.589 22.3358 127.576 22.3358H123.177ZM123.177 29.7647V25.132H126.971C129.28 25.132 130.352 25.8995 130.352 27.462C130.352 29.0246 129.225 29.7921 126.971 29.7921H123.177V29.7647Z" fill="#21A038"/>
<path d="M34.4039 15.6745C35.0637 16.5243 35.6136 17.4563 36.081 18.4432L23.3795 27.791L18.0459 24.4466V20.4443L23.352 23.7613L34.4039 15.6745Z" fill="#21A038"/>
<path d="M12.6297 24.1725C12.6297 23.9807 12.6297 23.8162 12.6572 23.6243L9.44058 23.4598C9.44058 23.6791 9.41309 23.9258 9.41309 24.1451C9.41309 27.9829 10.9802 31.4644 13.5095 33.9864L15.7913 31.7111C13.8394 29.7922 12.6297 27.1331 12.6297 24.1725Z" fill="url(#paint0_linear_142_2470)"/>
<path d="M23.3516 13.4819C23.5441 13.4819 23.709 13.4819 23.9015 13.5094L24.0664 10.302C23.8465 10.302 23.5991 10.2746 23.3791 10.2746C19.5302 10.2746 16.0386 11.8372 13.5093 14.3592L15.7912 16.6344C17.7157 14.6881 20.4099 13.4819 23.3516 13.4819Z" fill="url(#paint1_linear_142_2470)"/>
<path d="M23.3508 34.8636C23.1584 34.8636 22.9934 34.8636 22.801 34.8362L22.636 38.0435C22.856 38.0435 23.1034 38.0709 23.3233 38.0709C27.1723 38.0709 30.6638 36.5083 33.1931 33.9864L30.9113 31.7111C28.9868 33.6848 26.32 34.8636 23.3508 34.8636Z" fill="url(#paint2_linear_142_2470)"/>
<path d="M29.4004 15.3459L32.1221 13.3448C29.7303 11.4259 26.6786 10.2471 23.3521 10.2471V13.4544C25.6064 13.4819 27.6959 14.1672 29.4004 15.3459Z" fill="url(#paint3_linear_142_2470)"/>
<path d="M37.3179 24.1725C37.3179 23.3227 37.2354 22.5003 37.0979 21.6779L34.1013 23.8983C34.1013 23.9806 34.1013 24.0902 34.1013 24.1725C34.1013 27.325 32.7266 30.1485 30.5547 32.0948L32.7266 34.4797C35.5309 31.9577 37.3179 28.257 37.3179 24.1725Z" fill="#21A038"/>
<path d="M23.3514 34.8635C20.1897 34.8635 17.358 33.4929 15.406 31.3272L13.0142 33.4929C15.571 36.3164 19.255 38.0708 23.3514 38.0708V34.8635Z" fill="url(#paint4_linear_142_2470)"/>
<path d="M16.1762 16.2502L14.0043 13.8652C11.1726 16.4146 9.41309 20.088 9.41309 24.1725H12.6297C12.6297 21.0474 14.0043 18.1965 16.1762 16.2502Z" fill="url(#paint5_linear_142_2470)"/>
</g>
</g>
<defs>
<linearGradient id="paint0_linear_142_2470" x1="13.1767" y1="33.5961" x2="9.90142" y2="24.1315" gradientUnits="userSpaceOnUse">
<stop offset="0.1444" stop-color="#F2E913"/>
<stop offset="0.3037" stop-color="#E7E518"/>
<stop offset="0.5823" stop-color="#CADB26"/>
<stop offset="0.891" stop-color="#A3CD39"/>
</linearGradient>
<linearGradient id="paint1_linear_142_2470" x1="14.4262" y1="13.9873" x2="22.7654" y2="10.8104" gradientUnits="userSpaceOnUse">
<stop offset="0.0592" stop-color="#0FA8E0"/>
<stop offset="0.5385" stop-color="#0099F9"/>
<stop offset="0.9234" stop-color="#0291EB"/>
</linearGradient>
<linearGradient id="paint2_linear_142_2470" x1="22.4472" y1="35.335" x2="32.3883" y2="33.0889" gradientUnits="userSpaceOnUse">
<stop offset="0.1226" stop-color="#A3CD39"/>
<stop offset="0.2846" stop-color="#86C339"/>
<stop offset="0.8693" stop-color="#21A038"/>
</linearGradient>
<linearGradient id="paint3_linear_142_2470" x1="22.6912" y1="12.2992" x2="30.9576" y2="14.849" gradientUnits="userSpaceOnUse">
<stop offset="0.0566" stop-color="#0291EB"/>
<stop offset="0.79" stop-color="#0C8ACB"/>
</linearGradient>
<linearGradient id="paint4_linear_142_2470" x1="13.8321" y1="34.0138" x2="22.7078" y2="37.329" gradientUnits="userSpaceOnUse">
<stop offset="0.1324" stop-color="#F2E913"/>
<stop offset="0.2977" stop-color="#EBE716"/>
<stop offset="0.5306" stop-color="#D9E01F"/>
<stop offset="0.8023" stop-color="#BBD62D"/>
<stop offset="0.9829" stop-color="#A3CD39"/>
</linearGradient>
<linearGradient id="paint5_linear_142_2470" x1="11.8606" y1="24.5599" x2="15.4026" y2="15.3487" gradientUnits="userSpaceOnUse">
<stop offset="0.0698" stop-color="#A3CD39"/>
<stop offset="0.2599" stop-color="#81C55F"/>
<stop offset="0.9216" stop-color="#0FA8E0"/>
</linearGradient>
<clipPath id="clip0_142_2470">
<rect width="200" height="50" fill="white" transform="translate(0.330078)"/>
</clipPath>
<clipPath id="clip1_142_2470">
<rect width="200" height="50" fill="white" transform="translate(0.330078)"/>
</clipPath>
</defs>
</svg>
