<svg width="221" height="50" viewBox="0 0 221 50" fill="none" xmlns="http://www.w3.org/2000/svg">
<g clip-path="url(#clip0_142_2508)">
<mask id="mask0_142_2508" style="mask-type:luminance" maskUnits="userSpaceOnUse" x="18" y="0" width="46" height="50">
<path d="M18.9497 0H63.3937V50H18.9497V0Z" fill="white"/>
</mask>
<g mask="url(#mask0_142_2508)">
<path d="M34.1946 28.344L39.1046 23.534V20.256L34.1946 25.056V28.344ZM34.1946 16.144L39.1046 11.311V8.233L34.1946 13.023V16.144ZM34.1946 20.178L39.1046 15.367V12.277L34.1946 17.077V20.189V20.178ZM32.7946 8.267L32.1276 7.644V0H31.3946V6.911L30.7496 6.278V0H30.0056V5.556L29.3496 4.91V0H28.6166V7.289L33.5496 12.1V0H32.8056V8.267H32.7946ZM34.1946 24.211L39.1046 19.4V16.311L34.1946 21.111V24.222V24.211ZM28.6046 23.533L33.5386 28.344V25.056L28.6056 20.256L28.6046 23.533ZM38.3716 4.911L37.7166 5.556V0H36.9826V6.289L36.3166 6.911V0H35.5826V7.633L34.9386 8.267V0H34.1946V12.111L39.1046 7.289V0H38.3716V4.911ZM28.6056 11.311L33.5386 16.144V13.034L28.6056 8.222V11.311ZM28.6056 15.367L33.5386 20.177V17.067L28.6056 12.289V15.367ZM28.6056 19.4L33.5386 24.211V21.111L28.6056 16.322V19.412V19.4ZM57.9056 21.944H45.9496C46.1721 21.6002 46.3067 21.207 46.3415 20.7989C46.3764 20.3909 46.3105 19.9806 46.1496 19.604C45.92 19.0554 45.5078 18.6031 44.9828 18.3238C44.4578 18.0444 43.8524 17.9551 43.2691 18.071C42.6858 18.1869 42.1605 18.5009 41.7823 18.9598C41.404 19.4187 41.1961 19.9943 41.1936 20.589C41.1936 21.144 41.3716 21.656 41.6716 22.078C41.56 22.1526 41.4682 22.2533 41.4044 22.3715C41.3406 22.4897 41.3067 22.6217 41.3056 22.756C41.3056 23.044 41.4606 23.3 41.6716 23.444C41.398 23.8277 41.2353 24.2794 41.2014 24.7495C41.1675 25.2196 41.2637 25.6899 41.4795 26.1089C41.6953 26.5279 42.0224 26.8794 42.4247 27.1248C42.8271 27.3702 43.2893 27.5 43.7606 27.5C44.0993 27.5017 44.435 27.4366 44.7485 27.3085C45.062 27.1804 45.3472 26.9918 45.5877 26.7534C45.8283 26.5149 46.0195 26.2315 46.1504 25.9191C46.2813 25.6068 46.3493 25.2717 46.3506 24.933C46.3506 24.433 46.2056 23.967 45.9506 23.578H54.8506V24.122H53.9606V24.878H54.8506V25.656H53.9606V27.1H54.8506V26.456H56.1507V27.1H57.0276V25.656H56.1497V24.878H57.0276V24.122H56.1497V23.567H57.9056C57.9874 23.567 58.0684 23.5509 58.1439 23.5196C58.2194 23.4882 58.2881 23.4423 58.3458 23.3845C58.4036 23.3266 58.4494 23.2579 58.4806 23.1823C58.5118 23.1068 58.5278 23.0258 58.5276 22.944V22.567C58.5248 22.4028 58.4584 22.2461 58.3424 22.1299C58.2264 22.0137 58.0698 21.9471 57.9056 21.944ZM45.0936 24.944C45.0803 25.2886 44.934 25.6146 44.6855 25.8537C44.437 26.0928 44.1055 26.2264 43.7606 26.2264C43.4158 26.2264 43.0843 26.0928 42.8358 25.8537C42.5873 25.6146 42.441 25.2886 42.4276 24.944C42.4276 24.678 42.5166 24.422 42.6496 24.211L43.0276 23.589C42.9074 23.4864 42.8112 23.3585 42.7459 23.2146C42.6806 23.0706 42.6477 22.9141 42.6496 22.756C42.6496 22.422 42.7936 22.133 43.0166 21.933L42.6606 21.311C42.5121 21.0958 42.4345 20.8395 42.4386 20.578C42.4386 20.2243 42.5791 19.8852 42.8292 19.6351C43.0793 19.385 43.4185 19.2445 43.7721 19.2445C44.1258 19.2445 44.465 19.385 44.7151 19.6351C44.9652 19.8852 45.1056 20.2243 45.1056 20.578C45.1056 21.122 44.4826 22.411 44.4826 22.411V23.1C44.4726 23.111 45.0936 24.4 45.0936 24.944ZM24.1396 20.378V23.588C24.1396 26.644 25.4726 28.622 26.2506 29.378L31.3396 34.378C32.7616 35.767 33.0066 36.222 33.3286 37.011V33.456C33.3286 30.3 31.7286 29.078 30.8956 28.266C28.9726 26.4 27.6836 25.156 26.6506 24.122C25.539 23.0819 24.68 21.8012 24.1396 20.378ZM30.8946 36.2C28.9716 34.311 27.6826 33.089 26.6496 32.056C25.6157 31.1188 24.7676 29.9952 24.1496 28.744V31.511C24.1165 33.6428 24.8633 35.7133 26.2496 37.333L31.3396 42.3C32.7616 43.689 33.0066 44.356 33.3286 45.133V41.39C33.3286 38.223 31.7176 37.001 30.8956 36.201L30.8946 36.2Z" fill="#45AC45"/>
<path d="M41.0387 5.93298C40.6827 5.93298 40.3277 5.93298 39.9717 5.95598V7.44398C42.7496 7.23318 45.5413 7.58925 48.1773 8.49057C50.8134 9.39189 53.2387 10.8196 55.3059 12.6871C57.3732 14.5546 59.0393 16.8228 60.2029 19.354C61.3666 21.8851 62.0037 24.6265 62.0753 27.4114C62.147 30.1963 61.6517 32.9668 60.6198 35.5544C59.5878 38.1421 58.0405 40.493 56.072 42.4643C54.1035 44.4356 51.7549 45.9862 49.1687 47.0218C46.5825 48.0575 43.8127 48.5567 41.0277 48.489C35.578 48.4948 30.349 46.3364 26.4902 42.4881C22.6314 38.6398 20.4587 33.4167 20.4497 27.967C20.4497 21.667 23.2827 16.045 27.7607 12.267V10.356C25.0238 12.4039 22.8022 15.062 21.2727 18.119C19.7431 21.176 18.9477 24.5477 18.9497 27.966C18.9497 40.134 28.8387 50 41.0387 50C46.8862 50.0029 52.4956 47.6836 56.6336 43.552C60.7717 39.4203 63.0996 33.8145 63.1057 27.967C63.1057 15.8 53.2157 5.93298 41.0277 5.93298H41.0387Z" fill="#45AC45"/>
<path d="M56.6497 39.478C56.9827 39.022 57.3167 38.533 57.6167 38.033V35.078H56.6497V39.478ZM59.4717 34.011C59.6057 33.567 59.7387 33.144 59.8497 32.722H56.6497V33.5H57.1277C57.9827 33.478 58.9387 33.467 59.4717 34.011ZM38.1497 32.601H37.2827V41.389H38.1497V32.601Z" fill="#45AC45"/>
<path d="M35.2828 30.922H38.1498C38.8938 30.922 39.4168 31.078 39.7058 31.367C40.0058 31.644 40.1498 32.167 40.1498 32.9V41.122C40.1498 41.855 40.0168 42.367 39.7058 42.656C39.2608 43.111 38.4158 43.111 37.7278 43.111L37.2828 43.1V46.989L38.1498 47.144V43.944C39.4828 43.944 40.3388 43.5 40.7498 42.589V47.356H41.0388L41.5948 47.344V33.044C41.5948 32.289 41.7388 31.756 42.0388 31.456C42.3168 31.156 42.8388 31.011 43.5608 31.011C44.3058 31.011 45.3948 30.9 45.9608 31.456C46.2498 31.756 46.3828 32.3 46.3828 33.044V37.267H44.4168V32.755H43.5608V47.19C43.8498 47.157 44.1168 47.112 44.4168 47.057V38.11H46.3828V46.6C46.7828 46.489 47.1828 46.367 47.5828 46.222V38.444C47.5828 37.555 47.7938 36.889 48.6938 36.589L47.6938 31.178H49.6938L50.0278 37.078H50.2718L50.6058 31.178H52.6948L51.5718 36.588C52.5058 36.922 52.6948 37.488 52.6948 38.433V43.467C53.2774 43.0299 53.8337 42.5588 54.3608 42.056V31.133H60.1948L60.3048 30.333H46.6498L46.8388 31.323C46.4168 30.523 45.5938 30.123 44.3938 30.123H43.5388C42.0948 30.123 41.2058 30.7 40.8718 31.844C40.5718 30.644 39.6498 30.044 38.1388 30.044H34.4058V46.178C34.6938 46.278 34.9828 46.378 35.2718 46.456V30.933L35.2828 30.922ZM53.3828 37.122L52.4388 36.233L53.3828 31.378V37.122Z" fill="#45AC45"/>
<path d="M49.6826 45.322C49.9826 45.167 50.2936 45.012 50.5726 44.844V38.2H49.6826V45.322Z" fill="#45AC45"/>
</g>
<path d="M81.7687 26.493H78.6227V24.84H81.7687C82.3167 24.84 82.7587 24.751 83.0967 24.574C83.4337 24.397 83.6807 24.154 83.8357 23.844C83.9957 23.528 84.0757 23.169 84.0757 22.764C84.0757 22.383 83.9957 22.026 83.8357 21.694C83.6784 21.3535 83.4205 21.0694 83.0967 20.88C82.7587 20.676 82.3167 20.573 81.7687 20.573H79.2617V31H77.1777V18.914H81.7677C82.7037 18.914 83.4977 19.08 84.1507 19.412C84.8097 19.739 85.3107 20.192 85.6537 20.773C85.9967 21.349 86.1677 22.008 86.1677 22.749C86.1677 23.529 85.9967 24.199 85.6537 24.758C85.3107 25.317 84.8097 25.746 84.1507 26.044C83.4977 26.344 82.7037 26.493 81.7687 26.493ZM87.3387 26.609V26.418C87.3387 25.77 87.4327 25.17 87.6207 24.617C87.8087 24.057 88.0807 23.574 88.4337 23.164C88.7935 22.7488 89.2418 22.4197 89.7457 22.201C90.2657 21.969 90.8527 21.852 91.5057 21.852C92.1637 21.852 92.7507 21.969 93.2657 22.202C93.7857 22.428 94.2257 22.749 94.5857 23.164C94.9447 23.574 95.2187 24.058 95.4067 24.617C95.5992 25.1977 95.6945 25.8062 95.6887 26.418V26.608C95.6887 27.256 95.5947 27.857 95.4067 28.41C95.2301 28.9433 94.9508 29.4369 94.5847 29.863C94.2247 30.273 93.7877 30.593 93.2737 30.826C92.7587 31.053 92.1747 31.166 91.5217 31.166C90.8637 31.166 90.2737 31.053 89.7537 30.826C89.2525 30.6032 88.8053 30.2747 88.4427 29.863C88.0767 29.4369 87.7974 28.9433 87.6207 28.41C87.4283 27.8293 87.333 27.2207 87.3387 26.609ZM89.3387 26.418V26.608C89.3387 27.013 89.3807 27.395 89.4637 27.754C89.5467 28.114 89.6767 28.429 89.8537 28.701C90.0307 28.971 90.2577 29.185 90.5337 29.34C90.8107 29.495 91.1397 29.572 91.5217 29.572C91.8927 29.572 92.2137 29.495 92.4847 29.34C92.7604 29.1855 92.9939 28.9658 93.1647 28.7C93.3427 28.43 93.4727 28.114 93.5557 27.754C93.6461 27.3791 93.6908 26.9946 93.6887 26.609V26.418C93.6887 26.02 93.6447 25.643 93.5557 25.289C93.4813 24.9494 93.3465 24.6259 93.1577 24.334C92.9883 24.0649 92.7542 23.8425 92.4767 23.687C92.2057 23.527 91.8817 23.447 91.5057 23.447C91.1287 23.447 90.8027 23.527 90.5257 23.687C90.2547 23.842 90.0307 24.057 89.8537 24.334C89.6698 24.6275 89.5378 24.9506 89.4637 25.289C89.3807 25.643 89.3387 26.019 89.3387 26.418ZM101.035 29.572C101.361 29.572 101.655 29.509 101.915 29.382C102.18 29.248 102.394 29.066 102.554 28.833C102.72 28.601 102.811 28.333 102.828 28.028H104.712C104.705 28.5965 104.526 29.1496 104.198 29.614C103.858 30.0962 103.405 30.4868 102.878 30.751C102.313 31.0315 101.69 31.1738 101.06 31.166C100.374 31.166 99.7757 31.05 99.2667 30.817C98.7741 30.5916 98.3397 30.2564 97.9967 29.837C97.6534 29.4114 97.3941 28.9244 97.2327 28.402C97.0634 27.8366 96.9795 27.2491 96.9837 26.659V26.369C96.9837 25.749 97.0667 25.167 97.2337 24.625C97.4037 24.077 97.6587 23.595 97.9967 23.181C98.3337 22.766 98.7567 22.441 99.2667 22.209C99.7757 21.971 100.371 21.852 101.052 21.852C101.771 21.852 102.402 21.996 102.944 22.284C103.486 22.566 103.913 22.962 104.222 23.471C104.538 23.975 104.701 24.561 104.712 25.231H102.828C102.811 24.899 102.728 24.601 102.579 24.334C102.437 24.066 102.225 23.8422 101.965 23.687C101.705 23.527 101.392 23.447 101.027 23.447C100.623 23.447 100.287 23.529 100.022 23.695C99.7567 23.855 99.5487 24.077 99.3997 24.359C99.2497 24.636 99.1417 24.949 99.0757 25.297C99.0157 25.64 98.9847 25.997 98.9847 26.368V26.658C98.9847 27.029 99.0147 27.389 99.0757 27.738C99.1357 28.086 99.2417 28.399 99.3907 28.676C99.5457 28.946 99.7567 29.166 100.022 29.331C100.288 29.492 100.625 29.572 101.035 29.572ZM109.917 29.572C110.243 29.572 110.537 29.509 110.797 29.382C111.062 29.248 111.275 29.066 111.436 28.833C111.602 28.601 111.693 28.333 111.71 28.028H113.594C113.587 28.5966 113.407 29.1497 113.079 29.614C112.74 30.0959 112.286 30.4865 111.76 30.751C111.195 31.0315 110.572 31.1738 109.942 31.166C109.256 31.166 108.658 31.05 108.149 30.817C107.656 30.5917 107.222 30.2565 106.879 29.837C106.535 29.4114 106.276 28.9244 106.115 28.402C105.945 27.8366 105.861 27.2491 105.866 26.659V26.369C105.866 25.749 105.949 25.167 106.115 24.625C106.287 24.077 106.541 23.595 106.879 23.181C107.22 22.7623 107.655 22.4294 108.149 22.209C108.658 21.971 109.253 21.852 109.933 21.852C110.653 21.852 111.284 21.996 111.826 22.284C112.354 22.5532 112.796 22.9643 113.104 23.471C113.42 23.975 113.583 24.561 113.594 25.231H111.71C111.693 24.899 111.61 24.601 111.461 24.334C111.319 24.0658 111.106 23.8418 110.846 23.687C110.586 23.527 110.274 23.447 109.908 23.447C109.505 23.447 109.17 23.529 108.904 23.695C108.638 23.855 108.431 24.077 108.282 24.359C108.132 24.636 108.024 24.949 107.958 25.297C107.897 25.64 107.867 25.997 107.867 26.368V26.658C107.867 27.029 107.897 27.389 107.958 27.738C108.019 28.086 108.124 28.399 108.273 28.676C108.428 28.946 108.638 29.166 108.904 29.331C109.17 29.492 109.507 29.572 109.917 29.572ZM119.089 31.166C118.425 31.166 117.825 31.058 117.288 30.842C116.775 30.6331 116.311 30.3194 115.927 29.921C115.551 29.5212 115.261 29.0498 115.072 28.535C114.869 27.9848 114.767 27.4024 114.773 26.816V26.484C114.773 25.782 114.875 25.145 115.08 24.575C115.266 24.0369 115.557 23.5408 115.935 23.115C116.3 22.705 116.732 22.392 117.23 22.176C117.741 21.9577 118.292 21.8477 118.848 21.853C119.49 21.853 120.052 21.96 120.533 22.176C121.015 22.392 121.413 22.696 121.729 23.089C122.05 23.477 122.288 23.939 122.443 24.476C122.603 25.012 122.683 25.605 122.683 26.252V27.107H115.744V25.67H120.708V25.512C120.699 25.1638 120.626 24.8203 120.492 24.499C120.372 24.1938 120.168 23.9291 119.903 23.736C119.637 23.542 119.283 23.446 118.84 23.446C118.508 23.446 118.212 23.517 117.952 23.661C117.697 23.8 117.484 24.001 117.313 24.267C117.128 24.5638 116.993 24.8892 116.914 25.23C116.826 25.6 116.782 26.018 116.782 26.483V26.815C116.782 27.208 116.834 27.574 116.939 27.911C117.05 28.243 117.21 28.534 117.421 28.783C117.631 29.032 117.886 29.228 118.184 29.372C118.483 29.51 118.824 29.58 119.205 29.58C119.651 29.5881 120.092 29.4882 120.492 29.289C120.868 29.095 121.195 28.821 121.471 28.467L122.526 29.488C122.312 29.7922 122.057 30.066 121.77 30.302C121.46 30.556 121.081 30.764 120.633 30.924C120.19 31.084 119.676 31.166 119.089 31.166ZM130.279 22.019V23.612H125.896V22.02H130.279V22.019ZM131.847 22.019V31H129.847V22.019H131.847ZM125.406 22.019H127.382L127.141 26.459C127.108 27.118 127.041 27.699 126.942 28.203C126.864 28.6449 126.736 29.0764 126.56 29.489C126.42 29.8117 126.221 30.1047 125.971 30.352C125.739 30.573 125.461 30.7403 125.157 30.842C124.847 30.947 124.499 31 124.111 31H123.489L123.48 29.356L123.796 29.331C124 29.315 124.178 29.262 124.327 29.174C124.476 29.08 124.604 28.947 124.709 28.775C124.819 28.604 124.908 28.383 124.974 28.111C125.046 27.841 125.102 27.519 125.14 27.148C125.185 26.778 125.218 26.346 125.24 25.854L125.406 22.019ZM135.458 24.874H138.106C138.881 24.874 139.54 25.004 140.082 25.264C140.624 25.524 141.036 25.887 141.319 26.352C141.606 26.811 141.75 27.337 141.75 27.929C141.75 28.366 141.67 28.773 141.51 29.149C141.349 29.519 141.111 29.843 140.796 30.12C140.486 30.397 140.104 30.613 139.65 30.768C139.202 30.922 138.687 31 138.106 31H134.13V22.019H136.139V29.415H138.106C138.505 29.415 138.823 29.345 139.061 29.207C139.299 29.069 139.47 28.889 139.575 28.667C139.686 28.447 139.742 28.211 139.742 27.962C139.742 27.707 139.686 27.467 139.575 27.24C139.464 27.0067 139.285 26.8127 139.061 26.684C138.823 26.54 138.505 26.468 138.106 26.468H135.458V24.874ZM144.747 22.019L146.457 24.999L148.2 22.019H150.4L147.677 26.426L150.508 31H148.308L146.482 27.895L144.656 31H142.448L145.27 26.426L142.555 22.019H144.747ZM151.155 26.609V26.418C151.155 25.77 151.249 25.17 151.437 24.617C151.625 24.057 151.897 23.574 152.251 23.164C152.61 22.7489 153.058 22.4198 153.562 22.201C154.082 21.969 154.669 21.852 155.322 21.852C155.981 21.852 156.567 21.969 157.082 22.202C157.602 22.428 158.042 22.749 158.402 23.164C158.761 23.574 159.035 24.058 159.223 24.617C159.416 25.1976 159.512 25.8061 159.506 26.418V26.608C159.512 27.2202 159.416 27.8291 159.223 28.41C159.046 28.9431 158.767 29.4367 158.402 29.863C158.042 30.273 157.605 30.593 157.09 30.826C156.575 31.053 155.992 31.166 155.339 31.166C154.68 31.166 154.091 31.053 153.571 30.826C153.069 30.6033 152.622 30.2748 152.259 29.863C151.899 29.448 151.625 28.963 151.437 28.41C151.244 27.8292 151.149 27.2207 151.155 26.609ZM153.156 26.418V26.608C153.156 27.013 153.197 27.395 153.28 27.754C153.363 28.114 153.493 28.429 153.67 28.701C153.847 28.971 154.074 29.185 154.351 29.34C154.628 29.495 154.957 29.572 155.339 29.572C155.709 29.572 156.03 29.495 156.302 29.34C156.578 29.185 156.805 28.972 156.982 28.7C157.159 28.43 157.289 28.114 157.372 27.754C157.461 27.394 157.505 27.013 157.505 26.609V26.418C157.505 26.02 157.461 25.643 157.372 25.289C157.298 24.9493 157.163 24.6258 156.974 24.334C156.804 24.0648 156.57 23.8424 156.293 23.687C156.022 23.527 155.698 23.447 155.322 23.447C154.946 23.447 154.619 23.527 154.343 23.687C154.071 23.842 153.847 24.057 153.67 24.334C153.486 24.6275 153.354 24.9506 153.28 25.289C153.197 25.643 153.156 26.019 153.156 26.418ZM164.901 26.708H163.175V25.696H164.569C164.923 25.696 165.206 25.649 165.416 25.555C165.632 25.461 165.784 25.331 165.872 25.165C165.966 24.993 166.013 24.794 166.013 24.567C166.013 24.367 165.966 24.18 165.872 24.002C165.772 23.8075 165.612 23.6504 165.416 23.554C165.2 23.438 164.907 23.38 164.536 23.38C164.232 23.38 163.958 23.43 163.714 23.53C163.476 23.629 163.288 23.767 163.15 23.944C163.012 24.1188 162.938 24.3361 162.942 24.559H160.942C160.942 23.999 161.099 23.519 161.415 23.114C161.736 22.71 162.165 22.4 162.701 22.184C163.264 21.9635 163.865 21.8539 164.47 21.861C165.017 21.861 165.51 21.919 165.947 22.035C166.384 22.145 166.755 22.312 167.059 22.533C167.369 22.749 167.604 23.02 167.765 23.347C167.931 23.667 168.014 24.041 168.014 24.467C168.014 24.772 167.942 25.059 167.798 25.331C167.644 25.6133 167.432 25.8595 167.176 26.053C166.878 26.2706 166.543 26.4335 166.188 26.534C165.77 26.6554 165.336 26.7134 164.901 26.708ZM163.175 26.128H164.901C165.432 26.128 165.903 26.18 166.312 26.285C166.722 26.385 167.065 26.535 167.342 26.733C167.618 26.933 167.826 27.179 167.964 27.473C168.108 27.76 168.18 28.092 168.18 28.468C168.18 28.888 168.089 29.268 167.906 29.605C167.722 29.9442 167.46 30.2346 167.142 30.452C166.816 30.685 166.426 30.862 165.972 30.983C165.481 31.1094 164.976 31.1709 164.47 31.166C163.872 31.166 163.291 31.066 162.726 30.867C162.192 30.6847 161.715 30.3674 161.34 29.946C160.98 29.526 160.801 28.991 160.801 28.344H162.801C162.801 28.571 162.87 28.784 163.009 28.983C163.147 29.183 163.346 29.345 163.606 29.473C163.866 29.594 164.179 29.655 164.544 29.655C164.921 29.655 165.228 29.597 165.466 29.481C165.704 29.359 165.881 29.201 165.997 29.008C166.113 28.808 166.171 28.598 166.171 28.377C166.171 28.078 166.113 27.837 165.997 27.655C165.871 27.4647 165.683 27.3237 165.466 27.256C165.228 27.168 164.929 27.123 164.569 27.123H163.175V26.128ZM175.518 18.084H177.137C177.137 18.576 177.067 18.984 176.929 19.304C176.801 19.612 176.595 19.8811 176.331 20.084C176.071 20.284 175.748 20.444 175.36 20.566C174.924 20.7015 174.48 20.8123 174.032 20.898C173.567 20.998 173.147 21.155 172.77 21.371C172.4 21.581 172.087 21.877 171.832 22.259C171.583 22.636 171.403 23.119 171.293 23.712C171.182 24.304 171.149 25.026 171.193 25.878V26.443L169.608 26.584V26.02C169.608 24.963 169.705 24.041 169.898 23.255C170.092 22.47 170.366 21.808 170.72 21.272C171.08 20.729 171.506 20.298 171.998 19.977C172.504 19.6524 173.067 19.4268 173.658 19.312C174.074 19.224 174.419 19.135 174.696 19.047C174.973 18.953 175.178 18.834 175.31 18.69C175.449 18.54 175.518 18.338 175.518 18.084ZM174.115 22.524C174.713 22.524 175.244 22.63 175.709 22.84C176.162 23.0359 176.564 23.3312 176.888 23.704C177.208 24.074 177.452 24.512 177.618 25.015C177.79 25.519 177.875 26.067 177.875 26.659V26.841C177.875 27.461 177.784 28.034 177.601 28.56C177.428 29.069 177.154 29.5377 176.796 29.938C176.432 30.3323 175.988 30.6437 175.493 30.851C174.984 31.066 174.4 31.174 173.742 31.174C173.089 31.174 172.505 31.061 171.99 30.834C171.491 30.6188 171.046 30.2957 170.687 29.888C170.326 29.4673 170.052 28.9792 169.882 28.452C169.694 27.8731 169.602 27.2675 169.608 26.659V26.476C169.603 26.3561 169.635 26.2376 169.699 26.136C169.771 26.026 169.857 25.906 169.956 25.779C170.056 25.651 170.144 25.505 170.222 25.339C170.48 24.8071 170.81 24.3126 171.201 23.869C171.578 23.449 172.007 23.119 172.488 22.882C172.995 22.6394 173.552 22.5162 174.115 22.524ZM173.725 24.11C173.227 24.11 172.82 24.23 172.505 24.467C172.195 24.7 171.965 25.01 171.816 25.397C171.669 25.8013 171.596 26.2288 171.6 26.659V26.841C171.6 27.212 171.641 27.564 171.724 27.895C171.807 28.227 171.932 28.521 172.098 28.775C172.269 29.025 172.491 29.221 172.762 29.365C173.039 29.509 173.365 29.581 173.742 29.581C174.123 29.581 174.447 29.509 174.713 29.365C174.984 29.221 175.202 29.025 175.368 28.775C175.54 28.521 175.665 28.228 175.742 27.895C175.825 27.564 175.867 27.212 175.867 26.841V26.659C175.867 26.316 175.825 25.992 175.742 25.688C175.671 25.3974 175.544 25.1235 175.368 24.882C175.195 24.6429 174.968 24.4494 174.704 24.318C174.433 24.179 174.107 24.11 173.725 24.11ZM184.508 29.199V24.915C184.508 24.595 184.45 24.318 184.333 24.085C184.218 23.8532 184.032 23.664 183.802 23.545C183.57 23.419 183.276 23.355 182.922 23.355C182.596 23.355 182.313 23.41 182.075 23.521C181.838 23.631 181.652 23.781 181.519 23.969C181.387 24.156 181.317 24.38 181.32 24.609H179.328C179.328 24.254 179.414 23.911 179.585 23.579C179.757 23.247 180.006 22.951 180.332 22.691C180.659 22.431 181.049 22.226 181.503 22.077C181.957 21.927 182.466 21.852 183.03 21.852C183.705 21.852 184.303 21.966 184.823 22.192C185.349 22.42 185.761 22.762 186.06 23.222C186.364 23.676 186.516 24.246 186.516 24.932V28.925C186.516 29.335 186.544 29.702 186.599 30.029C186.66 30.349 186.746 30.629 186.857 30.867V31H184.806C184.699 30.7359 184.623 30.4599 184.582 30.178C184.534 29.8535 184.509 29.527 184.508 29.199ZM184.798 25.539L184.815 26.775H183.379C183.049 26.7703 182.72 26.8066 182.399 26.883C182.147 26.9366 181.907 27.0381 181.694 27.182C181.514 27.3044 181.369 27.4698 181.27 27.663C181.173 27.8623 181.125 28.0815 181.129 28.303C181.129 28.54 181.185 28.759 181.295 28.958C181.406 29.152 181.566 29.304 181.777 29.415C181.992 29.525 182.253 29.581 182.557 29.581C182.966 29.581 183.323 29.498 183.628 29.331C183.938 29.16 184.181 28.953 184.358 28.709C184.535 28.46 184.629 28.225 184.64 28.003L185.288 28.892C185.221 29.119 185.108 29.362 184.948 29.622C184.787 29.882 184.577 30.132 184.317 30.369C183.726 30.8965 182.958 31.1812 182.167 31.166C181.58 31.166 181.057 31.05 180.598 30.817C180.161 30.5989 179.789 30.2699 179.519 29.863C179.259 29.459 179.129 29.003 179.129 28.493C179.129 28.017 179.217 27.597 179.394 27.231C179.577 26.861 179.843 26.551 180.191 26.301C180.545 26.053 180.977 25.865 181.486 25.737C181.995 25.605 182.576 25.538 183.229 25.538L184.798 25.539ZM194.742 25.77V27.348H190.094V25.77H194.742ZM190.675 22.019V31H188.675V22.019H190.675ZM196.187 22.019V31H194.186V22.019H196.187ZM200.478 22.019V31H198.478V22.019H200.478ZM206.339 22.019L202.296 27.422H200.013L199.748 25.612H201.416L203.84 22.019H206.339ZM203.998 31L201.292 27.082L202.869 25.945L206.629 31H203.998Z" fill="black"/>
</g>
<defs>
<clipPath id="clip0_142_2508">
<rect width="220" height="50" fill="white" transform="translate(0.949707)"/>
</clipPath>
</defs>
</svg>
