<svg width="201" height="50" viewBox="0 0 201 50" fill="none" xmlns="http://www.w3.org/2000/svg">
<g clip-path="url(#clip0_142_2490)">
<path d="M79.98 9.73H56.13L57.86 5H81.68L79.98 9.73ZM79.13 12.08H55.28L53.56 16.8H77.38L79.13 12.08ZM76.55 19.13H52.71L50.98 23.85H74.78L76.55 19.13Z" fill="#009FDF"/>
<path d="M136.71 35.6501H140.98C141.59 35.7269 142.21 35.6501 142.783 35.4265C143.355 35.203 143.863 34.8399 144.26 34.3701C144.856 33.601 145.151 32.6411 145.09 31.6701C145.126 31.0518 145.01 30.434 144.752 29.8709C144.494 29.3078 144.102 28.8166 143.61 28.4401C142.811 27.9196 141.861 27.6803 140.91 27.7601H136.66V35.6401L136.71 35.6501ZM131.08 40.4001V12.0801H149.51L147.88 16.8301H136.71V23.1001H141.26C144.94 23.1001 146.84 23.9801 148.16 25.1001C149.103 25.9391 149.844 26.9799 150.329 28.1451C150.814 29.3104 151.03 30.57 150.96 31.8301C151.029 33.1815 150.761 34.5288 150.179 35.7508C149.598 36.9727 148.722 38.0309 147.63 38.8301C145.85 40.0601 144 40.4101 140.23 40.4101L131.08 40.4001ZM114.75 40.4001V16.8301H106.55V12.0801H129.3L127.67 16.8301H120.42V40.4301H114.74L114.75 40.4001ZM92.0499 23.4001H95.2799C95.9503 23.456 96.6254 23.4054 97.2799 23.2501C97.9503 23.0335 98.5277 22.5964 98.9181 22.0099C99.3085 21.4234 99.4889 20.7222 99.4299 20.0201C99.5218 19.3225 99.3533 18.6156 98.9566 18.0344C98.56 17.4533 97.963 17.0388 97.2799 16.8701C96.5761 16.7034 95.8524 16.6361 95.1299 16.6701H92.1299V23.4001H92.0499ZM92.0499 28.3001V35.7301H95.9799C97.0492 35.8469 98.1227 35.5499 98.9799 34.9001C99.3826 34.5356 99.6999 34.0866 99.909 33.5853C100.118 33.084 100.214 32.5427 100.19 32.0001C100.211 31.1301 99.9476 30.2769 99.4399 29.5701C98.6099 28.4901 97.5599 28.2901 95.8099 28.2901H92.0599L92.0499 28.3001ZM101.13 25.3V25.4001C102.095 25.7917 102.992 26.3316 103.79 27.0001C104.6 27.6702 105.239 28.5224 105.656 29.487C106.073 30.4516 106.256 31.5013 106.19 32.5501C106.19 36.4301 104.14 39.2301 100.76 40.0501C99.41 40.3837 98.0187 40.5184 96.6299 40.4501H86.4299V12.0801H95.5099C96.9545 12.0259 98.4001 12.1603 99.8099 12.4801C103.09 13.3601 105.24 15.6301 105.24 19.2101C105.268 20.0588 105.122 20.9043 104.813 21.6952C104.503 22.486 104.036 23.2054 103.44 23.8101C102.805 24.4549 102.047 24.9651 101.21 25.3101H101.13V25.3Z" fill="#0A2973"/>
</g>
<defs>
<clipPath id="clip0_142_2490">
<rect width="200" height="50" fill="white" transform="translate(0.97998)"/>
</clipPath>
</defs>
</svg>
