<svg width="201" height="50" viewBox="0 0 201 50" fill="none" xmlns="http://www.w3.org/2000/svg">
<g clip-path="url(#clip0_142_2573)">
<path d="M55.2997 5.53998C54.4797 5.82998 53.8197 6.03998 53.1997 6.23998C53.2797 5.98998 53.3197 5.73998 53.4097 5.49998C53.1347 5.45736 52.8547 5.45736 52.5797 5.49998C51.8797 5.78998 51.2597 6.19998 50.5797 6.49998C47.2797 8.02998 43.9797 9.58998 40.6397 11.04C40.1167 11.2217 39.6582 11.5523 39.3207 11.9911C38.9831 12.43 38.7812 12.9579 38.7397 13.51V13.63L38.1197 18.33C36.0321 16.4339 33.3099 15.3885 30.4897 15.4C28.9043 15.4285 27.3402 15.7709 25.8879 16.4074C24.4356 17.0439 23.1239 17.962 22.0285 19.1085C20.9331 20.255 20.0758 21.6073 19.5062 23.0871C18.9365 24.5669 18.6658 26.1449 18.7097 27.73C18.6372 30.9111 19.8312 33.9908 22.029 36.2918C24.2269 38.5927 27.2486 39.9266 30.4297 40C32.1643 40.0108 33.877 39.6134 35.4297 38.84C35.5158 38.9235 35.6134 38.9943 35.7197 39.05C38.4846 40.9801 41.7497 42.0673 45.1197 42.18C45.8207 42.2045 46.5089 42.3746 47.1407 42.6793C47.7725 42.984 48.3341 43.4167 48.7897 43.95C49.1997 44.4 49.5697 44.86 49.9897 45.27H51.8097C52.3897 45.15 53.0097 45.02 53.4997 44.9C53.5297 43 52.3697 42 50.8097 41.3C49.6647 40.8166 48.5494 40.2656 47.4697 39.65C46.6799 39.2142 45.9848 38.6255 45.4251 37.9181C44.8653 37.2107 44.4522 36.3989 44.2097 35.53C44.0411 35.1718 44.0028 34.7661 44.1014 34.3827C44.2 33.9994 44.4293 33.6624 44.7497 33.43C44.9197 33.31 44.9597 32.98 45.0397 32.73C45.1197 32.48 45.1197 32.28 45.2097 32.07C45.3297 31.49 45.4597 30.96 45.5797 30.38C45.6997 29.64 45.8297 28.85 45.9497 28.11C46.1273 27.2493 46.2443 26.3771 46.2997 25.5C46.2997 24.5 46.0497 23.5 45.9697 22.5C45.9697 22 45.9697 21.5 45.8897 21.02C45.7697 19.49 45.6397 17.97 45.5197 16.4C45.456 15.9956 45.526 15.5814 45.7191 15.2205C45.9122 14.8595 46.2179 14.5714 46.5897 14.4C46.9615 14.1907 47.319 13.9569 47.6597 13.7C47.7892 13.5397 47.8876 13.3565 47.9497 13.16C48.2797 12.66 49.2297 12.95 49.3897 12.09C49.8816 11.882 50.3623 11.6483 50.8297 11.39C50.9497 11.31 50.9097 11.06 50.9997 10.77C51.3297 10.56 51.7797 10.23 52.3597 9.85998L51.5797 9.52998C51.8285 9.47948 52.0703 9.39889 52.2997 9.28998C52.9197 8.91998 53.5797 8.58998 54.1597 8.17998C54.2797 8.09998 54.2797 7.84998 54.3697 7.68998L53.8797 7.56998H53.3397C53.9597 6.90998 54.9897 6.73998 55.2397 5.50998L55.2997 5.53998ZM30.4697 38.78C27.5191 38.6924 24.7187 37.4587 22.6627 35.3407C20.6066 33.2226 19.4565 30.3869 19.4565 27.435C19.4565 24.4831 20.6066 21.6474 22.6627 19.5293C24.7187 17.4113 27.5191 16.1776 30.4697 16.09C33.277 16.09 35.978 17.1632 38.0197 19.09C37.7697 21.09 37.5197 23.01 37.2797 24.99C37.0697 26.72 36.9897 28.46 36.7797 30.19C36.7511 30.5859 36.6223 30.968 36.4054 31.3003C36.1884 31.6327 35.8905 31.9045 35.5397 32.09C34.8139 32.3267 34.0368 32.3586 33.294 32.1821C32.5513 32.0057 31.8716 31.6278 31.3297 31.09C31.0272 30.6577 30.6043 30.3238 30.1136 30.13C29.6228 29.9362 29.0859 29.891 28.5697 30C28.1576 30.0565 27.7381 29.9831 27.3697 29.79C27.0267 29.5978 26.6332 29.5149 26.2418 29.5524C25.8505 29.5899 25.4799 29.7461 25.1797 30C26.0075 30.2478 26.7787 30.6555 27.4497 31.2C28.2697 32.15 29.3097 32.81 30.2097 33.67C31.1097 34.53 33.2097 36.67 34.5797 37.92C33.2765 38.4644 31.8818 38.7562 30.4697 38.78ZM183.3 34.7H179.3C179.006 34.6483 178.741 34.4876 178.56 34.25C176.7 31.82 174.89 29.34 173.03 26.91C172.91 26.74 172.78 26.62 172.58 26.37V34.7H169.07V17.7H172.49V24.8H172.65C173.31 24.06 173.93 23.32 174.59 22.53C175.87 21.05 177.15 19.53 178.43 17.99C178.487 17.904 178.56 17.8304 178.646 17.7737C178.732 17.7169 178.829 17.6783 178.93 17.66H182.93L175.83 25.37C177.36 27.27 178.88 29.17 180.41 31.02C181.36 32.17 182.35 33.37 183.34 34.53L183.3 34.7ZM92.0997 17.7V34.7H88.6297V20.7H88.5097C88.4297 20.87 88.3897 20.99 88.2997 21.15C86.8597 25.48 85.3697 29.81 83.9297 34.15C83.7697 34.6 83.5597 34.77 83.0997 34.73C82.3703 34.6886 81.6391 34.6886 80.9097 34.73C80.4997 34.73 80.3297 34.61 80.1697 34.19C78.7297 29.86 77.2397 25.53 75.7997 21.19C75.7543 20.9984 75.6535 20.8245 75.5097 20.69V34.69H72.0497V17.69H77.5797C77.7397 17.69 77.9897 17.94 78.0297 18.14L81.3697 27.79C81.5797 28.41 81.8197 29.03 82.0697 29.79L83.9697 24.34C84.6697 22.28 85.3697 20.22 86.1097 18.15C86.1897 17.94 86.3997 17.65 86.5597 17.65C88.3797 17.66 90.1997 17.66 92.0997 17.66V17.7ZM119.3 34.7V17.7H130.3V20.7H122.96V24.21H126.22C127.095 24.1711 127.966 24.3467 128.757 24.7214C129.548 25.0961 130.236 25.6587 130.76 26.36C132.66 29.16 131.96 33.79 127.3 34.49C125.888 34.6298 124.469 34.6866 123.05 34.66C121.85 34.74 120.66 34.66 119.38 34.66L119.3 34.7ZM122.87 32C123.87 32 124.77 32.08 125.72 32C126.28 32.0034 126.819 31.7914 127.227 31.4079C127.635 31.0245 127.879 30.4989 127.91 29.94C128.03 28.5 127.58 27.51 126.38 27.26C125.206 27.0663 124.02 26.956 122.83 26.93V32H122.87ZM151.12 17.7H154.5V24.46H161.35V17.7H164.81V34.7H161.4V27.4H154.55V34.7H151.09V17.7H151.12ZM109.66 34.7H106.24V20.55H99.5597V34.66H96.0997V17.75H109.67L109.66 34.7ZM131.98 34.7C134.25 28.97 136.52 23.36 138.79 17.7H142.5C142.66 17.7 142.87 17.99 142.95 18.19C144.44 21.86 145.88 25.49 147.32 29.19C147.98 30.84 148.64 32.53 149.32 34.19C149.379 34.3742 149.449 34.5546 149.53 34.73H145.9C145.74 34.73 145.53 34.48 145.49 34.32C145.12 33.37 144.79 32.42 144.42 31.51C144.391 31.3417 144.297 31.1914 144.159 31.0907C144.021 30.99 143.849 30.9467 143.68 30.97H137.68C137.522 30.9515 137.363 30.9924 137.233 31.0849C137.104 31.1773 137.014 31.3146 136.98 31.47C136.65 32.47 136.28 33.41 135.91 34.36C135.83 34.53 135.58 34.77 135.41 34.77C134.3 34.74 133.18 34.7 131.99 34.7H131.98ZM143.12 28C142.29 25.73 141.51 23.55 140.73 21.32H140.61C139.87 23.51 139.12 25.73 138.34 28H143.12ZM69.8597 18C69.8597 19 69.7797 19.94 69.6897 20.89C68.8597 20.72 68.0397 20.48 67.2597 20.39C65.1997 20.18 63.2597 20.47 61.7697 22.08C60.9433 22.9678 60.4054 24.0852 60.2269 25.2848C60.0484 26.4845 60.2376 27.7101 60.7697 28.8C61.6397 30.99 63.5297 31.85 65.7697 31.89C67.0866 31.8234 68.3969 31.6596 69.6897 31.4C69.7697 32.18 69.8097 33.13 69.8997 34.12C66.1497 35.19 62.5597 35.32 59.3397 32.76C58.16 31.8029 57.3331 30.4798 56.9897 29C56.4395 27.0287 56.4988 24.937 57.1597 23C57.7115 21.3198 58.8561 19.898 60.3797 19C61.8045 18.186 63.3828 17.6768 65.0147 17.5047C66.6466 17.3326 68.2964 17.5012 69.8597 18Z" fill="#005288"/>
<path d="M20.8598 19.85L18.9998 18C19.703 18.2982 20.3905 18.6319 21.0598 19V14.86L22.1698 18.86L24.5598 16.47L22.6998 19.4H25.2998L22.6598 20.18L24.3898 22.18L22.4698 21V24.71L21.3998 21.12L18.7998 23.56L20.8598 20.63H18.2998L20.8598 19.85ZM35.0898 20.26C35.1698 21.21 35.2598 22.12 35.3798 23.06L35.9998 27.64C36.1698 28.79 36.3298 29.91 36.4998 31.06C36.6256 30.8015 36.71 30.5248 36.7498 30.24C36.9998 28.51 37.0398 26.78 37.2498 25.04C37.6998 21.29 38.1998 17.49 38.6898 13.74V13.62C38.7313 13.0679 38.9332 12.54 39.2708 12.1011C39.6083 11.6623 40.0668 11.3317 40.5898 11.15C43.2998 10 46.0198 8.71 48.6998 7.43C48.821 7.24996 48.9185 7.05502 48.9898 6.85C48.7001 6.83196 48.4095 6.83196 48.1198 6.85C48.4769 6.5845 48.8474 6.33751 49.2298 6.11C49.431 6.01209 49.5936 5.8495 49.6915 5.64826C49.7894 5.44702 49.817 5.21876 49.7698 5H48.9898C48.1198 5.41 47.2598 5.83 46.3898 6.28C42.9698 8 39.5398 9.74 36.1198 11.43C35.7496 11.5818 35.4275 11.8313 35.188 12.1519C34.9485 12.4724 34.8005 12.8519 34.7598 13.25C34.6775 14.4986 34.6775 15.7514 34.7598 17C34.7598 18.11 34.9698 19.19 35.0498 20.26H35.0898Z" fill="#00AEEF"/>
</g>
<defs>
<clipPath id="clip0_142_2573">
<rect width="200" height="50" fill="white" transform="translate(0.299805)"/>
</clipPath>
</defs>
</svg>
