<svg width="126" height="50" viewBox="0 0 126 50" fill="none" xmlns="http://www.w3.org/2000/svg">
<g clip-path="url(#clip0_142_2538)">
<g clip-path="url(#clip1_142_2538)">
<g clip-path="url(#clip2_142_2538)">
<mask id="mask0_142_2538" style="mask-type:luminance" maskUnits="userSpaceOnUse" x="0" y="0" width="126" height="50">
<path d="M125.48 0H0.47998V50H125.48V0Z" fill="white"/>
</mask>
<g mask="url(#mask0_142_2538)">
<mask id="mask1_142_2538" style="mask-type:luminance" maskUnits="userSpaceOnUse" x="0" y="0" width="126" height="50">
<path d="M125.48 0H0.47998V50H125.48V0Z" fill="white"/>
</mask>
<g mask="url(#mask1_142_2538)">
<mask id="mask2_142_2538" style="mask-type:luminance" maskUnits="userSpaceOnUse" x="-17" y="-14" width="160" height="79">
<path d="M142.146 -13.8889H-16.8811V64.5835H142.146V-13.8889Z" fill="white"/>
</mask>
<g mask="url(#mask2_142_2538)">
<path d="M115.771 31.1579V19.5366H117.978V25.0705L121.73 19.5366H124.379L120.516 24.9599L124.71 31.0472H121.951L117.868 25.0705V31.0472H115.771V31.1579Z" fill="#2F444E"/>
<path d="M110.032 31.1579V26.288H106.17V31.1579H103.962V19.5366H106.17V24.2958H110.032V19.5366H112.239V31.0472H110.032V31.1579Z" fill="#2F444E"/>
<path d="M96.4581 22.9676L95.0234 27.1735H97.8928L96.4581 22.9676ZM99.2172 31.158L98.5553 29.1657H94.4717L93.8092 31.158H91.4922L95.6859 19.6473H97.4513L101.645 31.158H99.2172Z" fill="#2F444E"/>
<path d="M85.7526 25.956H83.5458V29.1657H85.7526C86.7458 29.1657 87.2981 28.5016 87.2981 27.6162C87.4083 26.62 86.7458 25.956 85.7526 25.956ZM85.8634 31.1579H81.2288V19.5366H88.843V21.5288H83.5458V23.8531H85.8634C88.1805 23.8531 89.6151 25.2919 89.6151 27.5055C89.6151 29.6084 88.1805 31.1579 85.8634 31.1579Z" fill="#2F444E"/>
<path d="M63.9016 3.48792H61.3635V47.0959H63.9016V3.48792Z" fill="#8BC540"/>
<path d="M15.7852 42.0047H3.09394V36.9133H15.8956V42.0047H15.7852ZM0.445312 34.3677V47.2066H2.98358V44.661H18.4339V34.3677H0.445312Z" fill="#2F444E"/>
<path d="M41.3886 42.0047H33.6635V36.9133H41.3886V42.0047ZM23.5104 36.9133H31.2356V42.0047H23.5104V36.9133ZM20.9722 34.3677V44.661H31.2356V47.2066H33.7738V44.661H44.0372V34.3677H20.9722Z" fill="#2F444E"/>
<path d="M43.9269 29.1657H0.445312V31.7113H43.9269V29.1657Z" fill="#2F444E"/>
<path d="M40.1748 3.48792L36.3122 7.36168V3.48792H32.4496L26.0488 9.90742V26.62H28.5871V11.2355L33.7739 6.14424V26.62H36.3122V11.2355L41.3888 6.14424V26.62H43.927V3.48792H40.1748Z" fill="#2F444E"/>
<path d="M8.17041 6.14424V24.0744H3.09394V11.2355L8.17041 6.14424ZM0.445312 26.62H10.7087V3.48792H6.84615L0.445312 9.90742V26.62Z" fill="#2F444E"/>
<path d="M15.7851 6.14424H20.8617V24.0744H15.7851V6.14424ZM23.5103 3.48792H13.2468V26.62H23.5103V3.48792Z" fill="#2F444E"/>
</g>
</g>
</g>
</g>
</g>
</g>
<defs>
<clipPath id="clip0_142_2538">
<rect width="125" height="50" fill="white" transform="translate(0.47998)"/>
</clipPath>
<clipPath id="clip1_142_2538">
<rect width="125" height="50" fill="white" transform="translate(0.47998)"/>
</clipPath>
<clipPath id="clip2_142_2538">
<rect width="125" height="50" fill="white" transform="translate(0.47998)"/>
</clipPath>
</defs>
</svg>
