<svg width="201" height="50" viewBox="0 0 201 50" fill="none" xmlns="http://www.w3.org/2000/svg">
<g clip-path="url(#clip0_142_2567)">
<path d="M94.0701 12.23C93.5301 12.53 92.0001 13.4 91.8201 13.49V38.84H94.0701V36.2L94.4901 36.74C95.1049 37.5385 95.8959 38.1841 96.8014 38.6264C97.7069 39.0688 98.7024 39.2959 99.7101 39.29C104 39.29 106.71 35.21 106.71 28.94C106.71 22.67 104.31 19.25 100.08 19.25C99.0039 19.2717 97.9456 19.5293 96.9798 20.0044C96.0139 20.4795 95.1641 21.1608 94.4901 22L94.0701 22.45V12.23ZM149.6 12.23C149.06 12.53 147.53 13.4 147.35 13.49V38.84H149.64V33.35L153.27 28.28C153.27 28.28 158.13 38.6 158.27 38.87H160.64C160.31 38.21 154.64 26.42 154.64 26.42C154.64 26.42 158.99 20.42 159.5 19.7H157.04C156.32 20.7 150.83 28.76 150.83 28.7L149.64 30.65V12.23H149.6ZM74.6001 13.58L70.6401 15.65V19.58H67.3401V23.21H70.7001V34.1C70.7001 37.1 72.4401 39.1 75.0801 39.1C76.2994 39.1482 77.507 38.8463 78.5601 38.23L79.5601 34.54L79.3501 34.69C78.4783 35.2826 77.4624 35.6281 76.4101 35.69C75.1201 35.69 74.5801 35.03 74.5801 33.53V23.21H78.5801V19.55H74.5801L74.6001 13.58ZM50.7501 19.25C48.1747 19.1952 45.6739 20.1169 43.7501 21.83C42.7346 22.7666 41.9317 23.9099 41.3952 25.1829C40.8587 26.4559 40.6013 27.8291 40.6401 29.21C40.5926 30.5865 40.8351 31.9575 41.3519 33.2341C41.8688 34.5107 42.6484 35.6643 43.6401 36.62C45.5691 38.3245 48.0663 39.2449 50.6401 39.2C51.9624 39.2376 53.2754 38.9682 54.476 38.413C55.6767 37.8577 56.7323 37.0318 57.5601 36L57.6401 35.9L55.3901 33.17V33.26C54.7845 33.9213 54.0517 34.4534 53.2354 34.8246C52.4192 35.1957 51.5365 35.3983 50.6401 35.42C49.8301 35.4349 49.0258 35.2828 48.2772 34.9732C47.5286 34.6636 46.8517 34.2032 46.2888 33.6206C45.7259 33.038 45.2891 32.3457 45.0054 31.5869C44.7217 30.8281 44.5974 30.019 44.6401 29.21C44.5944 28.4003 44.7167 27.5899 44.9992 26.8298C45.2818 26.0696 45.7186 25.3761 46.2821 24.7929C46.8456 24.2097 47.5236 23.7493 48.2736 23.4408C49.0236 23.1322 49.8293 22.9822 50.6401 23C51.527 23.0178 52.4006 23.2188 53.206 23.5905C54.0114 23.9623 54.7312 24.4966 55.3201 25.16L55.3801 25.28L57.6401 22.58L57.5801 22.52C56.7718 21.4842 55.7344 20.6498 54.5494 20.0824C53.3643 19.515 52.0638 19.2301 50.7501 19.25ZM117.2 19.25C115.064 19.2319 112.956 19.7257 111.05 20.69L111.86 22.52C113.411 21.5954 115.184 21.1082 116.99 21.11C119.93 21.11 121.43 22.64 121.43 25.7V28.46L121.04 28.25C119.601 27.5176 118.005 27.1469 116.39 27.17C112.94 27.17 109.25 28.76 109.25 33.17C109.25 38.63 113.36 39.23 115.16 39.23C116.278 39.2279 117.382 38.9795 118.393 38.5025C119.404 38.0255 120.297 37.3315 121.01 36.47L121.43 36.02V38.81H123.64V25.4C123.64 21.26 121.54 19.25 117.16 19.25H117.2ZM136.2 19.25C135.175 19.2286 134.162 19.47 133.257 19.9515C132.352 20.4329 131.585 21.1382 131.03 22L130.58 22.66V19.66H128.33V38.84H130.58V27.59C130.58 23.59 132.44 21.2 135.58 21.2C138.72 21.2 140.38 23.2 140.38 27.59V38.84H142.64V27.08C142.64 21.95 140.42 19.25 136.16 19.25H136.2ZM59.9701 19.55V38.84H63.9001V19.55H59.9301H59.9701ZM82.6201 19.55V38.84H86.6201V19.55H82.6201ZM99.4101 21.2C102.68 21.2 104.54 24.05 104.54 29C104.54 34.52 102.86 37.34 99.5401 37.34C98.4507 37.3275 97.3821 37.0406 96.433 36.5057C95.4839 35.9709 94.685 35.2054 94.1101 34.28V24.14C94.6913 23.2637 95.4739 22.5395 96.3926 22.028C97.3113 21.5165 98.3391 21.2325 99.3901 21.2H99.4101ZM116.21 28.91C117.969 28.7875 119.727 29.1654 121.28 30L121.43 30.06V34.32C120.797 35.2765 119.937 36.0611 118.926 36.6039C117.916 37.1466 116.787 37.4304 115.64 37.43C112.94 37.43 111.44 35.84 111.44 32.99C111.44 30.44 113.24 28.91 116.21 28.91Z" fill="#020168"/>
<path d="M88.85 16.16C87.083 13.6389 84.7345 11.5807 82.0033 10.1597C79.2721 8.73873 76.2387 7.99683 73.16 7.99683C70.0813 7.99683 67.0479 8.73873 64.3168 10.1597C61.5856 11.5807 59.237 13.6389 57.47 16.16L57.29 16.43H61.82L61.88 16.37C63.3287 14.8264 65.0783 13.5961 67.021 12.7551C68.9637 11.9141 71.0581 11.4801 73.175 11.4801C75.2919 11.4801 77.3864 11.9141 79.329 12.7551C81.2717 13.5961 83.0214 14.8264 84.47 16.37L84.53 16.43H89.06L88.85 16.16Z" fill="#FF0100"/>
</g>
<defs>
<clipPath id="clip0_142_2567">
<rect width="200" height="50" fill="white" transform="translate(0.640137)"/>
</clipPath>
</defs>
</svg>
