<svg width="201" height="50" viewBox="0 0 201 50" fill="none" xmlns="http://www.w3.org/2000/svg">
<g clip-path="url(#clip0_142_2496)">
<path d="M170.636 17.0544H173.999L173.982 22.4831H174.71L176.625 17.0544H180.264L177.654 24.2313L180.64 32.1778H176.7L174.76 26.0966H173.965L173.982 32.1778H170.619V17.0544H170.636ZM159.302 17.0544H162.648V22.5082H165.04V17.0544H168.377V32.1778H165.04V26.1134H162.648V32.1778H159.302V17.0544ZM147.65 32.2029H151.129L151.548 29.5847H153.94L154.358 32.2029H157.838L154.91 17.0795H150.594L147.65 32.2029ZM152.752 21.6633L153.388 26.2639H152.1L152.752 21.6633ZM138.315 32.1778H142.388C143.275 32.1778 146.981 31.793 146.997 27.2091C146.997 23.3614 144.128 22.6922 142.271 22.6922H141.661V20.6847H146.194V17.0544H138.323L138.315 32.1778ZM141.652 29.1414V25.7202H142.146C142.564 25.7202 143.626 25.7369 143.626 27.3011C143.626 28.8821 142.556 29.1414 142.146 29.1414H141.652ZM125.04 17.0544H127.951L130.519 20.6261L133.112 17.0544H135.998V32.1778H132.577V22.9599L130.519 25.5947L128.461 22.9599V32.1778H125.04V17.0544ZM117.972 32.3618C122.029 32.3618 123.392 28.4638 123.392 24.5993C123.392 20.7348 122.029 16.8369 117.972 16.8369C113.915 16.8369 112.551 20.7265 112.551 24.5993C112.551 28.4722 113.923 32.3618 117.972 32.3618ZM117.972 28.6897C116.767 28.6897 116.148 27.251 116.148 24.5993C116.148 21.9477 116.759 20.5006 117.972 20.5006C119.185 20.5006 119.787 21.9394 119.787 24.5993C119.787 27.2593 119.185 28.698 117.972 28.6897ZM102.648 32.1778H106.069V27.1924H107.215C110.594 27.1924 111.648 24.0724 111.648 22.0816C111.648 20.141 110.444 17.0544 107.215 17.0544H102.648V32.1778ZM106.069 20.3835H106.88C107.65 20.3835 108.143 20.8687 108.143 22.1234C108.143 23.7461 107.307 23.8632 106.88 23.8632H106.069V20.3835ZM91.347 17.0544H100.682V32.1778H97.2609V20.7098H94.7682V32.1778H91.347V17.0544ZM84.329 22.918C84.8811 22.918 85.8932 22.55 85.8932 21.4375C85.8932 20.1242 84.7305 20.0406 84.3876 20.0406C83.9944 20.0406 83.2416 20.1075 82.5055 20.4672L82.4637 17.1799C83.6264 16.8787 84.4629 16.7951 85.4499 16.7951C88.2604 16.7951 89.5068 18.8026 89.5068 20.7683C89.5068 22.6755 88.4361 23.8298 87.3905 24.2731V24.4153C88.4026 24.7415 89.741 25.7369 89.741 28.0456C89.741 30.9063 87.8004 32.4873 85.3077 32.4873C83.9861 32.4705 83.1078 32.2865 82.0622 31.701L82.1207 28.5558C83.0911 28.9824 83.7435 29.0243 84.3959 29.0243C85.5001 29.0243 85.935 28.1878 85.935 27.5855C85.935 26.7323 85.3997 26.1635 84.237 26.1635H82.8485V22.918H84.329ZM70.8786 32.1778H74.3416L74.7765 29.5596H77.1688L77.5871 32.1778H81.0501L78.1224 17.0544H73.8146C73.8062 17.0544 70.8786 32.1778 70.8786 32.1778ZM75.956 21.6215L76.6084 26.2388H75.3035L75.956 21.6215ZM64.2537 17.0544H71.2717V20.8269H67.7335V32.1778H64.2537V17.0544ZM21.51 24.7917C21.51 34.0933 28.9128 41.6717 38.0136 41.6717C47.0976 41.6717 54.492 34.0933 54.492 24.7917C54.492 15.4734 47.0976 7.89502 38.0136 7.89502C28.9044 7.88666 21.51 15.4651 21.51 24.7917ZM20.6401 24.7917C20.6401 14.9799 28.4276 7 38.0136 7C47.5744 7 55.362 14.9716 55.362 24.7917C55.362 34.5868 47.5744 42.5583 38.0136 42.5583C28.4276 42.5583 20.6401 34.5868 20.6401 24.7917Z" fill="#0D356C"/>
<path d="M32.8272 13.5579C32.2249 13.8256 31.6561 14.1602 31.1292 14.545C35.2613 12.6629 40.3052 12.78 43.0154 14.018C43.8686 14.4195 44.4374 14.6704 44.6967 15.1556C41.8862 14.386 40.6817 14.2438 38.3312 14.3024C34.9853 14.3609 30.5353 15.716 28.8372 16.7532L28.0844 17.7152C30.5353 16.2346 35.1024 15.2643 37.6369 15.1807C40.4642 15.1389 42.6641 15.4065 44.68 16.151C44.5629 16.678 44.3036 16.9373 43.8686 17.2049C35.7967 15.7662 31.0288 17.4642 26.721 20.3417L26.4031 21.2953C31.2128 17.9159 37.1016 16.9791 42.7812 17.9912C40.7486 18.7189 38.3144 18.8862 36.2735 19.363C34.5336 19.7729 33.6051 19.89 31.2881 20.6846C28.9376 21.4709 27.5491 22.2823 26.6791 23.3195C26.2609 23.8047 25.9431 24.3735 25.8678 24.9841C25.8343 25.3438 25.851 25.6784 25.9681 25.9962C26.0602 26.2806 26.286 26.565 26.5202 26.8494C26.2442 27.3346 26.0016 27.9619 26.4031 28.698C26.5788 29.041 27.0388 29.3839 27.4738 29.7102L27.3483 30.0698C27.2898 30.4964 27.2312 31.0067 27.5073 31.4249C27.9757 32.1945 28.5528 32.7047 29.4646 33.1899C29.6068 33.8172 29.8159 34.3275 30.2927 34.7708C31.3048 35.7244 33.5549 37.5479 37.57 37.8323C40.5813 38.033 42.731 37.1046 43.5424 36.6947L44.5294 36.1677C42.8481 36.8536 40.0208 37.2635 37.7038 37.0544C34.3412 36.77 31.3383 34.5199 30.9619 33.8674C31.079 33.9511 31.2379 34.0096 31.3717 34.0682C35.3115 36.0171 40.3889 37.0711 46.905 34.3526L47.4403 33.8256C41.5181 35.7076 36.3404 35.6491 30.7778 32.6713C30.8364 32.3869 30.9619 32.1359 31.2128 31.9435C32.6348 32.5876 34.0066 33.123 35.6628 33.4575C37.6034 33.8256 39.8201 33.9092 41.6352 33.8256C43.4755 33.7419 47.1141 32.8135 48.8372 31.8766C48.9962 31.7344 49.0714 31.4918 49.2304 31.3329C45.8678 32.5876 41.8694 33.1731 39.4604 32.9891C37.1016 32.8051 35.0104 32.5207 32.2417 31.2242C32.777 31.0067 33.3291 30.8227 33.8812 30.6554C35.7047 31.2242 37.5616 31.5671 39.7532 31.6675C41.928 31.7679 47.0137 30.9398 50.2174 28.9573C50.3178 28.6729 50.4182 28.3634 50.4182 28.3634C50.4182 28.3634 45.9681 30.7976 40.9242 30.7976C38.5654 30.7976 37.1267 30.4546 36.056 30.1869C38.4315 29.7436 41.4177 29.3756 44.7804 28.5056C46.4784 28.0623 48.5779 27.0418 49.5315 26.197C50.3429 25.4442 50.9786 24.4739 50.7611 23.4785C50.7193 23.2108 50.368 22.5834 49.9246 22.366C50.3429 21.8222 50.3011 21.3538 50.2425 20.9523C50.2007 20.6428 50.0585 20.2999 49.8912 19.9987C49.6152 19.6307 49.3558 19.3463 48.8205 19.0201C48.9042 18.5935 48.8456 18.1585 48.6616 17.7654C48.2433 17.0376 47.4989 16.4103 46.2107 15.7411C46.1522 15.4734 45.9932 15.1305 45.7172 14.7875C44.0945 13.1481 41.4428 12.3534 39.2095 12.3116H38.8414C36.2316 12.3367 34.1321 12.9389 32.8272 13.5579ZM45.4914 17.6148C45.6921 17.389 45.9849 17.046 46.0602 16.7616C46.6206 17.1297 47.2479 17.6734 47.3232 18.2422C46.7377 18.0163 46.102 17.7737 45.4914 17.6148ZM45.9849 20.0824C45.0397 19.8147 44.2032 19.4969 43.0991 19.2961C43.7766 19.0284 44.2283 18.7524 44.6214 18.4262C45.5081 18.6688 46.3362 18.9699 47.0137 19.2794C46.8966 19.455 46.2191 20.0991 46.01 20.0991C46.0016 20.0908 45.9932 20.0908 45.9849 20.0824ZM47.708 20.7934C47.9673 20.5926 48.2015 20.3668 48.419 20.1075C48.9543 20.5759 49.1133 20.8938 48.854 21.404C48.4943 21.1363 48.1179 20.9941 47.708 20.7934ZM27.3901 25.8206C25.9263 23.7545 31.0037 22.2739 31.974 21.9728C34.4416 21.22 37.3358 20.6596 39.9456 20.3333C41.744 20.1075 42.6975 20.3166 44.3956 20.7767C40.0208 21.9728 35.7047 22.3576 31.5976 23.5956C28.2852 24.5742 27.4069 25.8206 27.3901 25.8206ZM28.4776 26.816C30.025 25.4776 33.1702 24.7248 34.3161 24.4655C37.9715 23.6541 41.3759 23.1439 42.7812 22.7842C44.4792 22.3576 45.667 21.9561 46.4951 21.5462C46.5369 21.4877 47.8837 22.1568 48.0175 22.3158C47.5658 22.7005 46.9301 23.0268 46.2358 23.2693C44.1614 24.0389 40.3805 24.8503 38.3814 25.1598C36.3655 25.5027 34.6758 25.762 32.4508 26.3726C31.1626 26.724 30.2927 27.1255 29.657 27.5521C29.1886 27.2593 28.9125 27.1757 28.4776 26.816ZM31.3466 28.4387C31.9991 28.1543 32.7101 27.9285 33.396 27.7528C36.8757 26.8745 39.9456 26.7156 44.1781 25.5445C46.2107 24.9925 47.6996 24.4069 48.6281 23.6792C48.762 23.5537 48.9042 23.4534 49.0464 23.3363C50.276 25.2852 45.667 26.7825 42.5135 27.4768C40.8657 27.8114 39.2178 28.1292 37.57 28.4304C35.5123 28.7733 34.8431 28.9573 33.4127 29.3839C32.7101 29.0828 31.9991 28.7817 31.3466 28.4387ZM27.6411 27.8281C27.9589 28.0372 28.1932 28.1961 28.5696 28.3969C28.4274 28.5224 28.2517 28.6395 28.1179 28.7817C27.8084 28.5977 27.4905 28.1961 27.6411 27.8281ZM29.2889 29.6934C29.4897 29.5094 29.7406 29.3337 30.0167 29.1497C30.6106 29.4341 31.2212 29.6934 31.7983 29.9611C31.4136 30.1033 31.0455 30.2873 30.6942 30.5132C30.2174 30.2371 29.749 29.9695 29.2889 29.6934ZM28.7703 30.6805C29.1049 30.9063 29.4395 31.0903 29.7824 31.266C29.6402 31.4667 29.5399 31.6257 29.4897 31.8348C28.9878 31.4166 28.7536 31.0736 28.7703 30.6805Z" fill="#0D356C"/>
</g>
<defs>
<clipPath id="clip0_142_2496">
<rect width="200" height="50" fill="white" transform="translate(0.640137)"/>
</clipPath>
</defs>
</svg>
