<svg width="201" height="50" viewBox="0 0 201 50" fill="none" xmlns="http://www.w3.org/2000/svg">
<g clip-path="url(#clip0_142_2579)">
<path d="M44.7802 31.8491C44.3682 31.8491 44.1295 32.0963 44.1295 32.5435V36.076H38.7079V32.5435C38.7079 32.0986 38.4692 31.8491 38.0572 31.8491C37.6497 31.8491 37.4065 32.0963 37.4065 32.5435V41.0603C37.4065 41.5052 37.6497 41.7524 38.0572 41.7524C38.4692 41.7524 38.7079 41.5052 38.7079 41.0603V37.2895H44.1295V41.0603C44.1295 41.5052 44.3682 41.7524 44.7802 41.7524C45.1877 41.7524 45.4264 41.5052 45.4264 41.0603V32.5435C45.4286 32.0963 45.1877 31.8491 44.7802 31.8491ZM51.4739 36.685L55.2452 32.921C55.4231 32.7435 55.4996 32.5997 55.4996 32.3974C55.4996 32.1008 55.2947 31.8491 54.9435 31.8491C54.7611 31.8491 54.6148 31.9121 54.4504 32.0739L50.7647 35.7525C50.5576 35.9592 50.3482 36.0738 50.0555 36.0738H49.2967V32.5413C49.2967 32.0963 49.0581 31.8469 48.646 31.8469C48.2385 31.8469 47.9954 32.0941 47.9954 32.5413V41.058C47.9954 41.5029 48.2385 41.7501 48.646 41.7501C49.0581 41.7501 49.2967 41.5029 49.2967 41.058V37.2873H49.9677C50.2581 37.2873 50.4675 37.4041 50.6746 37.6086L54.5878 41.5142C54.7611 41.685 54.912 41.7501 55.1056 41.7501C55.4749 41.7501 55.6887 41.4872 55.6887 41.1771C55.6887 40.9636 55.6077 40.8131 55.4208 40.6266L51.4739 36.685ZM59.6176 20.1234C59.0322 20.4313 58.2307 20.6515 57.4629 20.6515C56.1976 20.6515 55.4051 20.1055 55.4051 19.1527C55.4051 18.2943 56.0828 17.6291 57.4539 17.6291C58.1767 17.6291 58.8161 17.7347 59.6176 17.9729V20.1234ZM57.6363 12.2157C56.5353 12.2157 55.5424 12.4966 54.9075 12.755C54.3716 12.973 54.1442 13.2831 54.1465 13.6966C54.151 14.1842 54.5202 14.5415 54.9795 14.5415C55.2002 14.5415 55.4456 14.4561 55.7068 14.3527C56.121 14.1864 56.8032 14.0067 57.4854 14.0067C59.0007 14.0067 59.6176 14.5775 59.6176 15.7437V16.5302C58.7463 16.2965 58.0348 16.1932 57.2198 16.1932C54.7386 16.1932 53.5273 17.6044 53.5273 19.1527C53.5273 20.9437 54.885 22.292 57.2896 22.292C59.1583 22.292 60.5813 21.6717 61.1509 21.2807C61.4233 21.092 61.5201 20.9122 61.5201 20.5459V15.7864C61.5179 13.337 60.1062 12.2157 57.6363 12.2157ZM81.3717 18.5617C80.9259 18.5707 80.6759 18.8358 80.5071 19.1302C80.1648 19.865 79.4421 20.3841 78.4537 20.3841C77.0578 20.3841 76.236 19.5437 76.1211 18.301C76.0604 17.6358 76.0604 16.8673 76.1211 16.2022C76.236 14.9572 77.069 14.1168 78.4537 14.1168C79.4421 14.1168 80.1581 14.6269 80.5071 15.3797C80.6827 15.6651 80.9259 15.937 81.3717 15.9415C81.9435 15.946 82.3285 15.5909 82.3285 15.0314C82.3285 14.7415 82.2182 14.4516 82.0426 14.1348C81.4685 13.0674 80.2211 12.2134 78.4267 12.2134C76.0041 12.2134 74.374 13.7393 74.1713 15.9213C74.1015 16.6471 74.1015 17.8493 74.1713 18.5774C74.383 20.7594 76.0041 22.2897 78.4267 22.2897C80.2211 22.2897 81.4685 21.4403 82.0493 20.3661C82.225 20.047 82.3308 19.7594 82.3308 19.4695C82.3285 18.919 81.9413 18.5482 81.3717 18.5617ZM37.1499 20.5167L33.7546 17.128L36.9765 13.9123C37.2264 13.6629 37.3547 13.4157 37.3547 13.1303C37.3547 12.6561 37.0103 12.3033 36.5194 12.3033C36.2335 12.3033 36.0196 12.4067 35.7427 12.6831L32.469 15.9505C32.2911 16.1302 32.0997 16.2314 31.8453 16.2314H31.1766V13.3415C31.1766 12.6853 30.7939 12.3033 30.1905 12.3033C29.5916 12.3033 29.2111 12.6853 29.2111 13.3415V21.1616C29.2111 21.8178 29.5938 22.2043 30.1905 22.2043C30.7939 22.2043 31.1766 21.8178 31.1766 21.1616V18.0403H31.735C31.9894 18.0403 32.1808 18.1415 32.3587 18.3212L35.853 21.8066C36.1412 22.0942 36.3663 22.2066 36.6658 22.2066C37.1836 22.2066 37.5461 21.838 37.5461 21.3369C37.5461 21.038 37.4133 20.7774 37.1499 20.5167ZM70.2988 18.3032C70.1839 19.5504 69.4072 20.3931 67.9842 20.3931C67.248 20.3931 66.3226 20.1684 65.8655 19.847V14.6606C66.3226 14.3348 67.2457 14.11 67.9842 14.11C69.4072 14.11 70.1862 14.9572 70.2988 16.2044C70.355 16.8314 70.3595 17.6246 70.2988 18.3032ZM68.045 12.2157C66.3248 12.2157 64.9492 12.8224 64.3953 13.1483C63.9428 13.4157 63.8955 13.6269 63.8955 14.3797V24.402C63.8955 25.0537 64.276 25.4402 64.8749 25.4402C65.4783 25.4402 65.8633 25.0537 65.8633 24.402V21.7863C66.4532 22.0717 67.356 22.292 68.2161 22.292C70.4901 22.292 72.0527 20.7796 72.2576 18.5976C72.3274 17.8628 72.3274 16.6516 72.2576 15.91C72.0572 13.7235 70.4924 12.2157 68.045 12.2157ZM33.7456 39.9502C33.0251 40.3367 32.0457 40.6198 31.1383 40.6198C29.515 40.6198 28.5986 39.9322 28.5986 38.7434C28.5986 37.676 29.4047 36.8783 31.1383 36.8783C31.9984 36.8783 32.7257 37.0041 33.7456 37.3052V39.9502ZM31.4175 31.7637C30.2828 31.7637 29.1773 32.0716 28.5784 32.3435C28.1754 32.5188 27.993 32.7053 28.002 33.0266C28.0133 33.3592 28.2699 33.6221 28.5874 33.6221C28.7427 33.6221 28.9296 33.5615 29.112 33.4761C29.5713 33.2806 30.4381 33.0222 31.2869 33.0222C32.9666 33.0222 33.7456 33.7053 33.7456 35.2266V36.1322C32.6919 35.8266 31.9331 35.721 31.0235 35.721C28.5626 35.721 27.313 37.1345 27.313 38.7322C27.313 40.6086 28.727 41.8423 30.9672 41.8423C32.818 41.8423 34.2342 41.1928 34.7565 40.8131C34.9682 40.6625 35.0289 40.5412 35.0289 40.2535V35.1929C35.0289 32.8514 33.6713 31.7637 31.4175 31.7637ZM21.9297 40.3883H18.2507V35.1817H21.9297C23.8547 35.1817 24.6473 36.1232 24.6473 37.7502C24.6473 39.4131 23.8547 40.3883 21.9297 40.3883ZM22.0963 33.9323H18.2507V29.9143H24.6585C25.0863 29.9143 25.3812 29.6761 25.3812 29.2671C25.3812 28.8761 25.0863 28.6334 24.6585 28.6334H18.0864C17.3501 28.6334 16.9291 29.0424 16.9291 29.7862V40.5097C16.9291 41.2535 17.3479 41.6647 18.0864 41.6647H22.0941C24.5572 41.6647 25.9847 40.2355 25.9847 37.7389C25.9847 35.3098 24.5595 33.9323 22.0963 33.9323ZM44.7037 15.9437H47.9278C49.4521 15.9437 50.132 16.719 50.132 18.0561C50.132 19.4156 49.4521 20.2268 47.9278 20.2268H44.7037V15.9437ZM44.2173 22.1167H48.1395C50.6904 22.1167 52.2012 20.638 52.2012 18.0134C52.2012 15.537 50.6904 14.1527 48.1395 14.1527H44.7037V10.9887H50.4765C51.1069 10.9887 51.5167 10.618 51.5167 10.0247C51.5167 9.46067 51.1069 9.08764 50.4765 9.08764H44.2173C43.2267 9.08764 42.6841 9.62471 42.6841 10.618V20.5886C42.6818 21.5819 43.2244 22.1167 44.2173 22.1167ZM19.7547 16.2359L21.5559 11.1078C21.6257 10.9281 21.6843 10.8651 21.8194 10.8651C21.9522 10.8651 22.0107 10.9281 22.076 11.1078L23.8863 16.2359H19.7547ZM27.7026 21.2583C27.7026 21.0762 27.671 20.8987 27.5675 20.6246L23.9335 10.7236C23.4945 9.5146 22.8551 9 21.8374 9C20.8242 9 20.1803 9.5146 19.7435 10.7236L16.0848 20.6291C15.9722 20.9369 15.9497 21.1212 15.9497 21.265C15.9497 21.7796 16.3595 22.2066 16.9291 22.2066C17.3952 22.2066 17.7441 21.9729 17.9378 21.4021L19.1221 18.0358H24.5257L25.719 21.4111C25.9081 21.9729 26.2571 22.2066 26.7164 22.2066C27.295 22.2066 27.7026 21.7774 27.7026 21.2583Z" fill="#170030"/>
<path d="M186.397 24.4826C185.054 21.0821 181.738 19.2302 178.149 19.8783L170.773 21.2065C169.549 21.4269 168.736 22.5987 168.954 23.8232C169.174 25.0478 170.344 25.8616 171.567 25.6431L178.942 24.3149C180.697 23.9984 181.781 25.0497 182.21 26.1367C182.64 27.2256 182.565 28.7346 181.07 29.7048L170.245 36.7299C169.238 37.3818 168.014 37.427 166.966 36.8562C165.917 36.2853 165.288 35.2285 165.288 34.0322V11.2688C165.288 10.0236 164.282 9.01378 163.039 9.01378C161.795 9.01378 160.789 10.0236 160.789 11.2688V34.0359C160.789 36.9108 162.294 39.4465 164.816 40.8199C165.988 41.4567 167.25 41.7751 168.507 41.7751C169.957 41.7751 171.402 41.3549 172.692 40.5166L183.517 33.4915C186.583 31.5021 187.74 27.8831 186.397 24.4826ZM148.32 19.8802L140.944 21.2084C139.722 21.4288 138.909 22.6006 139.127 23.8251C139.347 25.0497 140.517 25.8635 141.74 25.645L149.115 24.3168C150.872 24.0003 151.954 25.0515 152.385 26.1386C152.814 27.2275 152.74 28.7365 151.243 29.7067L140.418 36.7318C139.413 37.3836 138.189 37.4289 137.139 36.858C136.09 36.2872 135.463 35.2303 135.463 34.0341V16.7397C135.463 13.863 133.958 11.3272 131.436 9.95385C128.914 8.58236 125.97 8.6954 123.56 10.2572L96.3306 27.9264C93.2664 29.9139 92.1096 33.5329 93.4527 36.9334C94.7938 40.332 98.1081 42.182 101.701 41.5358L125.475 37.2555C126.698 37.0351 127.512 35.8633 127.292 34.6388C127.072 33.4142 125.902 32.5985 124.679 32.8189L100.905 37.0992C99.1483 37.4157 98.0667 36.3645 97.6379 35.2774C97.2071 34.1885 97.2805 32.6795 98.7778 31.7074L126.002 14.0419C127.004 13.392 128.231 13.3449 129.28 13.9157C130.33 14.4884 130.956 15.5453 130.956 16.7416V34.0359C130.956 36.9108 132.461 39.4465 134.984 40.8199C136.155 41.4567 137.419 41.7751 138.676 41.7751C140.126 41.7751 141.569 41.3549 142.859 40.5166L153.686 33.4915C156.749 31.504 157.905 27.885 156.564 24.4845C155.227 21.0821 151.909 19.234 148.32 19.8802Z" fill="#009C32"/>
</g>
<defs>
<clipPath id="clip0_142_2579">
<rect width="200" height="50" fill="white" transform="translate(0.949707)"/>
</clipPath>
</defs>
</svg>
