<svg width="201" height="50" viewBox="0 0 201 50" fill="none" xmlns="http://www.w3.org/2000/svg">
<g clip-path="url(#clip0_142_2502)">
<path d="M18.2998 40.64H40.0898V45.16H18.2998V40.64ZM175.88 26.13L182.75 18.55H177.63L172 24.85V18.55H167.92V34.48H172.02V27.77L178.04 34.48H183.3L175.88 26.13ZM42.4898 27.18C42.3798 30.18 41.9998 30.75 40.3398 30.75V34.49H40.9598C45.1298 34.49 46.1198 32.34 46.2698 27.55L46.4498 22.25H50.2998V34.48H54.3798V18.55H42.7698L42.4898 27.18ZM24.7798 29.92H33.3798L34.8098 34.48H39.5798L33.1498 15.32C32.5298 13.47 31.8098 12 29.3498 12C26.8898 12 26.1398 13.47 25.4798 15.32L18.7398 34.48H23.2198L24.7798 29.92ZM29.1398 17H29.2498L32.1298 26.08H26.0698L29.1398 17ZM124.45 20.81H119.9V16.31H130.46V12.31H115.62V34.48H124.45C129.34 34.48 132.15 32.04 132.15 27.58C132.15 23.35 129.3 20.81 124.45 20.81ZM124.24 30.47H119.9V24.71H124.24C126.5 24.71 127.77 25.71 127.77 27.59C127.77 29.47 126.5 30.47 124.24 30.47ZM83.8898 18.18V12.28H79.8198V18.18C77.6827 18.2505 75.6609 19.1663 74.1984 20.7262C72.736 22.2862 71.9524 24.3628 72.0198 26.5C71.947 28.6416 72.7278 30.7244 74.1906 32.2903C75.6533 33.8563 77.6782 34.777 79.8198 34.85V40.85H83.8998V34.85C84.9606 34.8151 86.0042 34.5714 86.9706 34.1326C87.9371 33.6939 88.8075 33.0688 89.5321 32.2932C90.2566 31.5175 90.821 30.6066 91.193 29.6125C91.565 28.6184 91.7372 27.5607 91.6998 26.5C91.7426 25.4386 91.5735 24.3793 91.2026 23.384C90.8316 22.3886 90.2661 21.4771 89.5391 20.7026C88.8121 19.9282 87.9381 19.3062 86.9682 18.8731C85.9982 18.44 84.9518 18.2044 83.8898 18.18ZM79.8298 31C78.75 30.8814 77.7601 30.3431 77.0736 29.5013C76.387 28.6595 76.0588 27.5816 76.1598 26.5C76.0718 25.4211 76.4047 24.35 77.0889 23.5112C77.773 22.6723 78.7553 22.1308 79.8298 22V31ZM83.9098 31V22C84.9843 22.1308 85.9666 22.6723 86.6507 23.5112C87.3349 24.35 87.6678 25.4211 87.5798 26.5C87.6755 27.5805 87.3454 28.6556 86.6598 29.4963C85.9743 30.3369 84.9875 30.8765 83.9098 31ZM106.99 29.59V24.22C106.99 20.3 104.5 17.85 100.32 17.85C96.1398 17.85 93.6998 20.45 93.4998 23.16H97.6298C97.7698 22.58 98.3898 21.55 100.31 21.55C100.669 21.5038 101.033 21.5416 101.374 21.6606C101.716 21.7796 102.025 21.9763 102.277 22.2354C102.529 22.4944 102.718 22.8086 102.828 23.153C102.938 23.4975 102.966 23.8628 102.91 24.22H98.9098C95.2898 24.22 93.1398 26.13 93.1398 29.29C93.1116 30.0441 93.242 30.7957 93.5226 31.4962C93.8033 32.1967 94.2279 32.8304 94.769 33.3564C95.31 33.8824 95.9555 34.2889 96.6637 34.5497C97.3718 34.8104 98.1268 34.9195 98.8798 34.87C99.7299 34.9147 100.578 34.7492 101.349 34.3882C102.12 34.0271 102.79 33.4817 103.3 32.8C103.632 33.3615 104.116 33.8173 104.697 34.1146C105.277 34.412 105.93 34.5387 106.58 34.48H107.99V30.8C107.3 30.8 106.99 30.47 106.99 29.59ZM102.91 28.59C102.927 28.9839 102.86 29.3769 102.713 29.743C102.567 30.1091 102.345 30.4401 102.062 30.7141C101.778 30.9881 101.44 31.1989 101.069 31.3327C100.698 31.4664 100.303 31.52 99.9098 31.49C98.4398 31.49 97.2798 30.96 97.2798 29.37C97.2798 27.78 98.5698 27.55 99.6598 27.55H102.91V28.59ZM64.5398 23.39H61.6098V18.55H57.5298V34.48H64.6098C69.0398 34.48 70.6098 31.6 70.6098 28.88C70.6298 25.37 68.4298 23.39 64.5398 23.39ZM64.2398 31H61.6098V27H64.2398C65.6498 27 66.4998 27.64 66.4998 29C66.4998 30.36 65.6898 31 64.2398 31ZM147.72 29.59V24.22C147.72 20.3 145.23 17.85 141.05 17.85C136.87 17.85 134.43 20.45 134.23 23.16H138.36C138.5 22.58 139.12 21.55 141.04 21.55C141.399 21.5038 141.763 21.5416 142.104 21.6606C142.446 21.7796 142.755 21.9763 143.007 22.2354C143.259 22.4944 143.448 22.8086 143.558 23.153C143.668 23.4975 143.696 23.8628 143.64 24.22H139.64C136.02 24.22 133.87 26.13 133.87 29.29C133.842 30.0441 133.972 30.7957 134.253 31.4962C134.533 32.1967 134.958 32.8304 135.499 33.3564C136.04 33.8824 136.686 34.2889 137.394 34.5497C138.102 34.8104 138.857 34.9195 139.61 34.87C140.468 34.9231 141.326 34.7617 142.107 34.4004C142.887 34.039 143.565 33.489 144.08 32.8C144.407 33.3517 144.882 33.8012 145.451 34.098C146.02 34.3948 146.66 34.5271 147.3 34.48H148.71V30.8C148 30.8 147.72 30.47 147.72 29.59ZM143.66 28.59C143.675 28.9835 143.607 29.3757 143.46 29.7411C143.313 30.1065 143.091 30.4368 142.808 30.7105C142.525 30.9841 142.187 31.195 141.817 31.3294C141.447 31.4637 141.053 31.5184 140.66 31.49C139.19 31.49 138.03 30.96 138.03 29.37C138.03 27.78 139.32 27.55 140.41 27.55H143.66V28.59ZM160.75 24.48H155.12V18.55H151.04V34.49H155.12V28.21H160.75V34.48H164.83V18.55H160.75V24.48Z" fill="#EF3124"/>
</g>
<defs>
<clipPath id="clip0_142_2502">
<rect width="200" height="50" fill="white" transform="translate(0.299805)"/>
</clipPath>
</defs>
</svg>
