<svg width="201" height="50" viewBox="0 0 201 50" fill="none" xmlns="http://www.w3.org/2000/svg">
<g clip-path="url(#clip0_142_2585)">
<path d="M21.8304 17.07C21.8461 15.2293 22.5862 13.469 23.8904 12.17L30.0204 6V11.12C29.9752 13.0196 29.2434 14.8384 27.9604 16.24L21.8404 22.41L21.8304 17.07ZM30.0104 41.53L23.8504 35.4C22.4646 34.1174 20.6581 33.3849 18.7704 33.34H13.6104L19.7804 39.47C21.0906 40.7574 22.8439 41.4944 24.6804 41.53H30.0104ZM18.2904 29.76L21.8304 33.35V25.16C21.7364 23.4248 21.0274 21.7798 19.8304 20.52L16.3704 17V25.22C16.4364 26.9196 17.1189 28.537 18.2904 29.77" fill="#FF5A00"/>
<path d="M171.61 21.6199H174.54V33.3399H171.61V28.3399H165.88V33.3399H162.95V21.6199H165.88V25.9499H171.61V21.6199ZM156.91 21.6199H149.52V23.9999H156.3C156.613 23.9999 156.913 24.1242 157.134 24.3455C157.356 24.5668 157.48 24.8669 157.48 25.1799V26.2299H152.19C151.728 26.2325 151.271 26.3262 150.844 26.5055C150.418 26.6848 150.032 26.9463 149.707 27.275C149.382 27.6037 149.125 27.9933 148.95 28.4213C148.776 28.8494 148.687 29.3076 148.69 29.7699V29.8999C148.693 30.8273 149.062 31.7161 149.718 32.3719C150.374 33.0277 151.263 33.3973 152.19 33.3999H160.41V25.1199C160.407 24.1925 160.038 23.3037 159.382 22.6479C158.726 21.9921 157.837 21.6225 156.91 21.6199ZM157.52 30.9799H152.84C152.681 30.9866 152.522 30.9611 152.373 30.9048C152.224 30.8486 152.088 30.7627 151.973 30.6525C151.858 30.5422 151.767 30.4098 151.704 30.2633C151.642 30.1168 151.61 29.9592 151.61 29.7999V29.6699C151.61 29.3569 151.734 29.0568 151.956 28.8355C152.177 28.6142 152.477 28.4899 152.79 28.4899H157.47L157.52 30.9799ZM181.1 28.3099H180.1V33.3099H177.17V21.6199H180.1V25.9499H181.19L185.04 21.6199H188.32L183.38 27.1299L188.61 33.3399H184.94L181.1 28.3099ZM142.29 22.6199H136.87V19.2999H145.87V16.9399H133.92V33.3399H142.28C142.912 33.3412 143.538 33.2177 144.122 32.9764C144.706 32.7352 145.237 32.3809 145.684 31.934C146.131 31.4871 146.485 30.9563 146.727 30.3722C146.968 29.788 147.091 29.1619 147.09 28.5299V27.4399C147.085 26.1658 146.576 24.9454 145.675 24.0445C144.774 23.1436 143.554 22.6352 142.28 22.6299L142.29 22.6199ZM143.81 28.5399C143.802 29.1951 143.536 29.8207 143.07 30.2812C142.604 30.7417 141.975 30.9999 141.32 30.9999H136.86V24.9999H141.32C141.98 24.9999 142.614 25.2622 143.081 25.7292C143.548 26.1962 143.81 26.8295 143.81 27.4899V28.5399ZM64.01 25.1199V29.7999C64.0074 29.9565 64.0359 30.1121 64.094 30.2576C64.1521 30.4031 64.2386 30.5355 64.3485 30.6472C64.4583 30.7589 64.5893 30.8477 64.7338 30.9082C64.8782 30.9688 65.0333 30.9999 65.19 30.9999H70.96V33.3599H64.61C63.6826 33.3573 62.7939 32.9877 62.138 32.3319C61.4822 31.6761 61.1126 30.7873 61.11 29.8599V25.1199C61.1126 24.1925 61.4822 23.3037 62.138 22.6479C62.7939 21.9921 63.6826 21.6225 64.61 21.6199H71V23.9999H65.19C64.8831 23.9972 64.5874 24.1152 64.3667 24.3284C64.146 24.5416 64.0179 24.8331 64.01 25.1399V25.1199ZM80.68 21.6399H76C75.0726 21.6425 74.1838 22.0121 73.528 22.6679C72.8722 23.3237 72.5026 24.2125 72.5 25.1399V29.7999C72.5026 30.7273 72.8722 31.6161 73.528 32.2719C74.1838 32.9277 75.0726 33.2973 76 33.2999H80.68C81.6074 33.2973 82.4962 32.9277 83.152 32.2719C83.8078 31.6161 84.1774 30.7273 84.18 29.7999V25.1199C84.1854 24.6588 84.0985 24.2013 83.9245 23.7742C83.7505 23.3471 83.4929 22.9592 83.1668 22.6331C82.8407 22.307 82.4528 22.0494 82.0257 21.8754C81.5987 21.7014 81.1411 21.6145 80.68 21.6199V21.6399ZM81.29 29.8399C81.2848 30.1494 81.1581 30.4444 80.9374 30.6614C80.7167 30.8784 80.4195 30.9999 80.11 30.9999H76.61C76.297 30.9999 75.9969 30.8756 75.7756 30.6543C75.5543 30.433 75.43 30.1329 75.43 29.8199V25.1199C75.43 24.8069 75.5543 24.5068 75.7756 24.2855C75.9969 24.0642 76.297 23.9399 76.61 23.9399H80.11C80.423 23.9399 80.7231 24.0642 80.9444 24.2855C81.1657 24.5068 81.29 24.8069 81.29 25.1199V29.8399ZM55.61 21.6199H52.42C51.683 21.6304 50.9659 21.8602 50.36 22.2799V20.4399C50.36 20.1269 50.4843 19.8268 50.7056 19.6055C50.9269 19.3842 51.227 19.2599 51.54 19.2599H57.75V16.9399H50.93C50.0026 16.9425 49.1139 17.3121 48.458 17.9679C47.8022 18.6237 47.4326 19.5125 47.43 20.4399V29.7999C47.4326 30.7273 47.8022 31.6161 48.458 32.2719C49.1139 32.9277 50.0026 33.2973 50.93 33.2999H55.61C56.5375 33.2973 57.4262 32.9277 58.082 32.2719C58.7378 31.6161 59.1074 30.7273 59.11 29.7999V25.1199C59.1167 24.6584 59.0308 24.2003 58.8573 23.7726C58.6838 23.3449 58.4262 22.9564 58.0999 22.63C57.7735 22.3037 57.385 22.0461 56.9573 21.8726C56.5296 21.6991 56.0715 21.6132 55.61 21.6199ZM56.18 29.8399C56.175 30.1426 56.054 30.4318 55.8418 30.6477C55.6296 30.8636 55.3425 30.9897 55.04 30.9999H51.54C51.227 30.9999 50.9269 30.8756 50.7056 30.6543C50.4843 30.433 50.36 30.1329 50.36 29.8199V25.1599C50.3652 24.8504 50.4919 24.5554 50.7126 24.3384C50.9333 24.1214 51.2305 23.9999 51.54 23.9999H55.04C55.353 23.9999 55.6531 24.1242 55.8744 24.3455C56.0957 24.5668 56.22 24.8669 56.22 25.1799L56.18 29.8399ZM118.66 21.6199H128.99V23.9999H125.27V33.3599H122.34V23.9999H118.61V21.6199H118.66ZM36.66 16.9399L30.02 33.3399H33.61L34.88 29.8399H42.01L43.28 33.3399H46.78L40.12 16.9399H36.66ZM35.66 27.4799L38.42 19.9999L41.18 27.4799H35.66ZM90.35 21.6199H97.83V33.3399H94.94V23.9999H91C90.687 23.9999 90.3869 24.1242 90.1656 24.3455C89.9443 24.5668 89.82 24.8669 89.82 25.1799V29.8599C89.8174 30.7873 89.4478 31.6761 88.792 32.3319C88.1362 32.9877 87.2474 33.3573 86.32 33.3599H85.32V30.9999H85.67C85.983 30.9999 86.2831 30.8756 86.5044 30.6543C86.7257 30.433 86.85 30.1329 86.85 29.8199V25.1199C86.8526 24.1925 87.2222 23.3037 87.878 22.6479C88.5339 21.9921 89.4226 21.6225 90.35 21.6199ZM114.06 21.6199H109.61C108.683 21.6225 107.794 21.9921 107.138 22.6479C106.482 23.3037 106.113 24.1925 106.11 25.1199V25.9999H103.66V21.6199H100.73V33.3399H103.66V28.3399H106.11V29.8699C106.113 30.7973 106.482 31.6861 107.138 32.3419C107.794 32.9977 108.683 33.3673 109.61 33.3699H114.07C114.997 33.3673 115.886 32.9977 116.542 32.3419C117.198 31.6861 117.567 30.7973 117.57 29.8699V25.1199C117.573 24.6595 117.484 24.2032 117.309 23.7774C117.134 23.3515 116.876 22.9646 116.551 22.6391C116.225 22.3136 115.838 22.0559 115.413 21.8809C114.987 21.706 114.53 21.6172 114.07 21.6199H114.06ZM114.68 29.7999C114.685 30.1112 114.568 30.412 114.352 30.6367C114.137 30.8615 113.841 30.992 113.53 30.9999H110.12C109.807 30.9999 109.507 30.8756 109.286 30.6543C109.064 30.433 108.94 30.1329 108.94 29.8199V25.1199C108.94 24.8069 109.064 24.5068 109.286 24.2855C109.507 24.0642 109.807 23.9399 110.12 23.9399H113.53C113.843 23.9399 114.143 24.0642 114.364 24.2855C114.586 24.5068 114.71 24.8069 114.71 25.1199L114.68 29.7999Z" fill="#7D7D7D"/>
</g>
<defs>
<clipPath id="clip0_142_2585">
<rect width="200" height="50" fill="white" transform="translate(0.610352)"/>
</clipPath>
</defs>
</svg>
